<?xml version="1.0" encoding="UTF-8"?>
<svg id="Layer_2" data-name="Layer 2" xmlns="http://www.w3.org/2000/svg" xmlns:xlink="http://www.w3.org/1999/xlink" viewBox="0 0 503.67 503.06">
  <defs>
    <style>
      .cls-1 {
        fill: url(#linear-gradient-12);
      }

      .cls-1, .cls-2, .cls-3, .cls-4, .cls-5, .cls-6, .cls-7, .cls-8, .cls-9, .cls-10, .cls-11, .cls-12, .cls-13, .cls-14, .cls-15, .cls-16, .cls-17, .cls-18, .cls-19, .cls-20, .cls-21, .cls-22, .cls-23, .cls-24, .cls-25, .cls-26, .cls-27, .cls-28, .cls-29, .cls-30, .cls-31, .cls-32, .cls-33, .cls-34, .cls-35, .cls-36, .cls-37 {
        stroke-width: 0px;
      }

      .cls-2 {
        fill: url(#linear-gradient-17);
      }

      .cls-3 {
        fill: url(#linear-gradient-19);
      }

      .cls-4 {
        fill: url(#linear-gradient-33);
      }

      .cls-5 {
        fill: url(#linear-gradient);
      }

      .cls-6 {
        fill: url(#linear-gradient-21);
      }

      .cls-7 {
        fill: url(#linear-gradient-6);
      }

      .cls-8 {
        fill: url(#linear-gradient-15);
      }

      .cls-9 {
        fill: url(#linear-gradient-11);
      }

      .cls-10 {
        fill: url(#linear-gradient-5);
      }

      .cls-11 {
        fill: url(#linear-gradient-31);
      }

      .cls-12 {
        fill: url(#linear-gradient-34);
      }

      .cls-13 {
        fill: url(#linear-gradient-13);
      }

      .cls-14 {
        fill: url(#linear-gradient-23);
      }

      .cls-15 {
        fill: url(#linear-gradient-25);
      }

      .cls-16 {
        fill: url(#linear-gradient-16);
      }

      .cls-17 {
        fill: url(#linear-gradient-22);
      }

      .cls-18 {
        fill: url(#linear-gradient-35);
      }

      .cls-19 {
        fill: url(#linear-gradient-32);
      }

      .cls-20 {
        fill: url(#linear-gradient-20);
      }

      .cls-21 {
        fill: url(#linear-gradient-14);
      }

      .cls-22 {
        fill: url(#linear-gradient-2);
      }

      .cls-23 {
        fill: url(#linear-gradient-7);
      }

      .cls-24 {
        fill: url(#linear-gradient-3);
      }

      .cls-25 {
        fill: url(#linear-gradient-9);
      }

      .cls-26 {
        fill: url(#linear-gradient-27);
      }

      .cls-27 {
        fill: url(#linear-gradient-36);
      }

      .cls-28 {
        fill: url(#linear-gradient-8);
      }

      .cls-29 {
        fill: url(#linear-gradient-24);
      }

      .cls-30 {
        fill: url(#linear-gradient-26);
      }

      .cls-31 {
        fill: url(#linear-gradient-18);
      }

      .cls-32 {
        fill: url(#linear-gradient-30);
      }

      .cls-33 {
        fill: url(#linear-gradient-29);
      }

      .cls-34 {
        fill: url(#linear-gradient-28);
      }

      .cls-35 {
        fill: url(#linear-gradient-10);
      }

      .cls-36 {
        fill: url(#linear-gradient-4);
      }

      .cls-37 {
        fill: url(#linear-gradient-37);
      }
    </style>
    <linearGradient id="linear-gradient" x1="133.28" y1="18.69" x2="189.52" y2="18.69" gradientUnits="userSpaceOnUse">
       <stop offset="2.37%" style="stop-color:#FF8D4D;stop-opacity:1" />
      <stop offset="95.47%" style="stop-color:#BD83FF;stop-opacity:1" />
    </linearGradient>
    <linearGradient id="linear-gradient-2" x1="91.43" y1="28.99" x2="238.26" y2="28.99" xlink:href="#linear-gradient"/>
    <linearGradient id="linear-gradient-3" x1="69.19" y1="39.2" x2="269.83" y2="39.2" xlink:href="#linear-gradient"/>
    <linearGradient id="linear-gradient-4" x1="52.74" y1="49.05" x2="294.05" y2="49.05" xlink:href="#linear-gradient"/>
    <linearGradient id="linear-gradient-5" x1="40.52" y1="58.04" x2="316.31" y2="58.04" xlink:href="#linear-gradient"/>
    <linearGradient id="linear-gradient-6" x1="29.88" y1="67.73" x2="334.87" y2="67.73" xlink:href="#linear-gradient"/>
    <linearGradient id="linear-gradient-7" x1="21.78" y1="76.89" x2="353.19" y2="76.89" xlink:href="#linear-gradient"/>
    <linearGradient id="linear-gradient-8" x1="14.76" y1="86.79" x2="369" y2="86.79" xlink:href="#linear-gradient"/>
    <linearGradient id="linear-gradient-9" x1="9.44" y1="96.45" x2="384.43" y2="96.45" xlink:href="#linear-gradient"/>
    <linearGradient id="linear-gradient-10" x1="5.35" y1="106.34" x2="398.69" y2="106.34" xlink:href="#linear-gradient"/>
    <linearGradient id="linear-gradient-11" x1="2.39" y1="116.61" x2="411.82" y2="116.61" xlink:href="#linear-gradient"/>
    <linearGradient id="linear-gradient-12" x1=".68" y1="126.65" x2="424.39" y2="126.65" xlink:href="#linear-gradient"/>
    <linearGradient id="linear-gradient-13" x1="0" y1="136.98" x2="435.86" y2="136.98" xlink:href="#linear-gradient"/>
    <linearGradient id="linear-gradient-14" x1="5.42" y1="191.1" x2="480.42" y2="191.1" xlink:href="#linear-gradient"/>
    <linearGradient id="linear-gradient-15" x1="8.03" y1="202.32" x2="486.71" y2="202.32" xlink:href="#linear-gradient"/>
    <linearGradient id="linear-gradient-16" x1="11.13" y1="213.39" x2="492.02" y2="213.39" xlink:href="#linear-gradient"/>
    <linearGradient id="linear-gradient-17" x1="14.71" y1="224.72" x2="496.35" y2="224.72" xlink:href="#linear-gradient"/>
    <linearGradient id="linear-gradient-18" x1="18.72" y1="235.71" x2="499.68" y2="235.71" xlink:href="#linear-gradient"/>
    <linearGradient id="linear-gradient-19" x1="28.01" y1="257.44" x2="503.34" y2="257.44" xlink:href="#linear-gradient"/>
    <linearGradient id="linear-gradient-20" x1="33.26" y1="267.96" x2="503.67" y2="267.96" xlink:href="#linear-gradient"/>
    <linearGradient id="linear-gradient-21" x1="45.14" y1="289.15" x2="502.1" y2="289.15" xlink:href="#linear-gradient"/>
    <linearGradient id="linear-gradient-22" x1="51.3" y1="298.39" x2="501.53" y2="298.39" xlink:href="#linear-gradient"/>
    <linearGradient id="linear-gradient-23" x1="58.02" y1="308.04" x2="499.89" y2="308.04" xlink:href="#linear-gradient"/>
    <linearGradient id="linear-gradient-24" x1="65.08" y1="317.39" x2="497.79" y2="317.39" xlink:href="#linear-gradient"/>
    <linearGradient id="linear-gradient-25" x1="80.07" y1="334.72" x2="491.94" y2="334.72" xlink:href="#linear-gradient"/>
    <linearGradient id="linear-gradient-26" x1="88.15" y1="342.87" x2="488.87" y2="342.87" xlink:href="#linear-gradient"/>
    <linearGradient id="linear-gradient-27" x1="96.42" y1="350.43" x2="485.05" y2="350.43" xlink:href="#linear-gradient"/>
    <linearGradient id="linear-gradient-28" x1="104.96" y1="357.07" x2="480.81" y2="357.07" xlink:href="#linear-gradient"/>
    <linearGradient id="linear-gradient-29" x1="250.82" y1="498.54" x2="320.04" y2="498.54" xlink:href="#linear-gradient"/>
    <linearGradient id="linear-gradient-30" x1="122.79" y1="367.71" x2="471.13" y2="367.71" xlink:href="#linear-gradient"/>
    <linearGradient id="linear-gradient-31" x1="132.06" y1="372.68" x2="465.69" y2="372.68" xlink:href="#linear-gradient"/>
    <linearGradient id="linear-gradient-32" x1="151.22" y1="381.89" x2="453.69" y2="381.89" xlink:href="#linear-gradient"/>
    <linearGradient id="linear-gradient-33" x1="161.09" y1="386.16" x2="447.14" y2="386.16" xlink:href="#linear-gradient"/>
    <linearGradient id="linear-gradient-34" x1="181.36" y1="393.98" x2="432.95" y2="393.98" xlink:href="#linear-gradient"/>
    <linearGradient id="linear-gradient-35" x1="191.71" y1="397.51" x2="425.34" y2="397.51" xlink:href="#linear-gradient"/>
    <linearGradient id="linear-gradient-36" x1="202.21" y1="400.79" x2="417.39" y2="400.79" xlink:href="#linear-gradient"/>
    <linearGradient id="linear-gradient-37" x1="212.83" y1="403.81" x2="409.12" y2="403.81" xlink:href="#linear-gradient"/>
  </defs>
  <g id="Layer_1-2" data-name="Layer 1">
    <g>
      <path class="cls-5" d="M189.52,7.76c-5.73,1.64-13.37,3.82-19.03,5.68-.27.09-.55.19-.82.28-7.49,2.82-17.39,6.83-24.72,10.05l-11.67,5.86c17.59-9.39,36.59-16.84,56.24-21.86"/>
      <path class="cls-22" d="M238.26.31l-6.17.4c-49.76,3.89-98.71,23.84-136.11,53.28l-4.55,3.66C108.17,44.66,159.13,5.1,238.26.31"/>
      <path class="cls-24" d="M269.83.59l-4.98-.3c-1.81-.09-3.64-.16-5.48-.21C189.46-1.75,117.91,28.9,72.33,75.15l-3.14,3.24C114.91,30.33,188.36-1.76,260.07.12c3.3.09,6.55.24,9.76.47"/>
      <path class="cls-36" d="M294.05,3.49l-4.1-.66C183.2-9.47,98.92,41.8,55.64,93.88l-2.9,3.67C98.02,39.14,182.06-1.51,263.92.64c10.5.28,20.56,1.24,30.13,2.85"/>
      <path class="cls-10" d="M316.31,8.29l-.51-.13-3.48-.88c-13.96-3.43-29.11-5.46-45.27-5.88C178.14-.94,86.72,45.94,42.64,111.56l-2.12,3.22C84.21,47.54,177.27-.77,267.75,1.6c17.44.46,33.69,2.77,48.56,6.69"/>
      <path class="cls-7" d="M334.87,13.96l-3.38-1.15c-18.06-5.98-38.41-9.51-60.63-10.09C173.31.17,72.84,55.15,31.56,129.72l-.63,1.15-1.05,1.95C70.6,56.78,172.57.42,271.55,3.02c23.31.61,44.58,4.44,63.32,10.95"/>
      <path class="cls-23" d="M353.19,21.17l-3.32-1.43c-21.57-9.1-46.93-14.49-75.23-15.23C169.59,1.76,61.24,64,23.19,146.27l-1.4,3.1C59.13,65.7,168.92,2.1,275.33,4.88c29.44.77,55.7,6.55,77.87,16.29"/>
      <path class="cls-28" d="M369,28.79l-2.86-1.48c-24.24-12.31-53.94-19.68-87.75-20.56C165.87,3.8,49.65,73.66,15.96,163.64l-1.2,3.28C47.52,75.53,165.18,4.22,279.07,7.2c34.8.91,65.26,8.66,89.94,21.59"/>
      <path class="cls-25" d="M384.43,37.61l-2.79-1.7c-26.41-15.85-60.26-25.44-99.55-26.47C165.2,6.38,44.4,80.22,12.27,174.38c-.7,2.07-1.36,4.12-1.97,6.18l-.87,3c.75-2.66,1.59-5.33,2.5-8.02C44.19,81.03,165.44,6.91,282.77,9.98c40.31,1.06,74.91,11.09,101.66,27.63"/>
      <path class="cls-35" d="M398.69,47.14l-2.47-1.75c-28.04-19.62-65.8-31.63-110.46-32.8C166.57,9.46,43.4,84.75,10.65,180.76c-1.88,5.5-3.42,10.96-4.63,16.34l-.67,3.08c1.27-6,2.95-12.09,5.05-18.24C43.26,85.62,166.84,10.08,286.43,13.21c45.57,1.19,83.99,13.64,112.26,33.92"/>
      <path class="cls-9" d="M411.82,57.24l-2.36-1.92c-29.15-23.35-70.43-37.83-120.08-39.13C168.11,13.01,42.78,89.62,9.46,187.3c-3.09,9.06-5.28,17.98-6.62,26.72l-.46,3.12c1.3-9.34,3.59-18.91,6.9-28.63C42.71,90.54,168.41,13.71,290.03,16.9c50.58,1.33,92.49,16.28,121.79,40.35"/>
      <path class="cls-1" d="M424.39,68.32l-2.25-2.09c-29.81-27.36-74.5-44.54-129.21-45.97C169.81,17.03,42.56,94.81,8.72,193.99c-4.22,12.37-6.79,24.49-7.81,36.23l-.24,2.94c.93-12.27,3.54-24.96,7.96-37.93C42.56,95.79,170.14,17.81,293.58,21.04c55.63,1.46,100.93,19.16,130.81,47.28"/>
      <path class="cls-13" d="M435.86,79.84l-2-2.12c-30.01-31.4-77.85-51.38-137.42-52.94C171.67,21.5,42.73,100.32,8.45,200.81,3.1,216.47.38,231.72.05,246.34l-.05,2.96c.16-15.13,2.9-30.96,8.44-47.22C42.81,101.36,172.03,22.37,297.07,25.64c60.41,1.58,108.79,22.08,138.79,54.19"/>
      <path class="cls-21" d="M480.42,146.19l-1.25-2.66c-24.69-51.83-84.97-87.13-166.35-89.26C183.44,50.88,49.73,132.61,14.17,236.83c-10.8,31.66-11.3,61.75-3.14,88.4l.88,2.8c-8.62-27-8.29-57.6,2.7-89.83C50.18,133.94,183.94,52.17,313.38,55.57c82.1,2.15,142.74,38.05,167.03,90.62"/>
      <path class="cls-8" d="M486.71,161.04l-.17-.43-.91-2.32c-22.37-55.89-84.51-94.5-169.79-96.73C186.28,58.16,52.39,140.01,16.79,244.36c-11.85,34.73-11.32,67.58-.56,96.07l.89,2.32.17.43c-11.26-28.81-12-62.15.04-97.43C52.93,141.39,186.82,59.55,316.38,62.94c85.97,2.25,148.43,41.47,170.33,98.1"/>
      <path class="cls-16" d="M492.02,176.2l-.9-2.79C420.33-8.16,96.15,67.63,24.27,240.37c-24.08,57.87-9.08,96.43-1.87,114.96l1.23,2.67C-46.35,183.73,228.61,20.15,400.17,85.83c26.59,10.18,73.88,35.45,91.85,90.37"/>
      <path class="cls-2" d="M496.35,191.6l-.72-2.83c-16.5-63.76-81.69-109.11-174.17-111.53-129.12-3.38-262.55,78.18-298.03,182.18-13.88,40.69-10.71,78.79,6.03,110.3l1.38,2.57C-49.83,203.44,217.12,32.34,393.58,90.61c37.9,12.52,86.5,40.2,102.77,100.99"/>
      <path class="cls-31" d="M499.68,207.18l-.54-2.87c-12.97-67.53-79.33-116.3-175.11-118.81-128.51-3.37-261.32,77.81-296.63,181.33-14.85,43.53-10.1,84.08,9.96,116.7l1.54,2.47c-20.68-32.8-25.75-73.78-10.72-117.82C63.45,164.79,196.12,83.69,324.49,87.06c96.36,2.53,162.91,51.92,175.19,120.13"/>
      <path class="cls-3" d="M503.34,238.73l-.17-2.97c-4.75-74.65-72.77-130.27-174.47-132.93-126.56-3.32-257.35,76.63-292.13,178.57-16.76,49.12-8.17,94.38,19.39,128.46l1.86,2.28C-54.83,260.78,176.62,73.1,369.66,108.59c45.83,8.42,124.14,36.53,133.68,130.15"/>
      <path class="cls-20" d="M503.65,254.97l.02-2.96c.19-78.17-68.38-137.44-172.9-140.18-125.23-3.28-254.64,75.83-289.05,176.69-17.65,51.74-6.88,99.16,24.71,133.51l1.99,2.14C-47.94,287.2,151.11,100.95,342.73,114.05c96.63,6.61,161.3,63.24,160.92,140.93"/>
      <path class="cls-6" d="M501.14,287.19l.19-1.34.22-1.66c14.03-175.37-243.27-199.05-384.23-73.76-72.55,64.48-105.15,165.68-27.1,234.34l2.35,1.94c-127.24-114.32,25.26-298.14,210.77-313.56,104.54-8.69,209.39,42.34,197.8,154.04"/>
      <path class="cls-17" d="M498.11,304.14l.64-3.07c17.77-87.68-51.03-158.03-162.7-160.95-119.85-3.14-243.72,72.57-276.65,169.11-20.24,59.33-1.43,112.72,43.89,145.79l2.45,1.77c-46.2-32.88-65.55-86.58-45.16-146.33,32.83-96.22,156.28-171.69,275.75-168.56,112.08,2.94,180.82,74.01,161.78,162.25"/>
      <path class="cls-14" d="M493.95,320.75l.84-3.02c24.86-90.58-43.56-164.85-157.32-167.84-117.63-3.08-239.19,71.22-271.51,165.97-21.05,61.71.94,116.87,51.34,148.68l2.79,1.74c-51.44-31.52-74.1-87.03-52.88-149.22,32.21-94.4,153.32-168.43,270.51-165.36,114.1,2.99,182.42,77.97,156.23,169.04"/>
      <path class="cls-29" d="M488.54,337.45l1.17-3.3c.1-.28.2-.57.29-.85,31.65-92.78-36.06-170.44-151.25-173.46-115.19-3.02-234.23,69.75-265.88,162.53-21.9,64.19,3.77,121.15,59.81,151.15l2.86,1.51c-57.07-29.62-83.42-86.87-61.37-151.49,31.53-92.4,150.08-164.88,264.8-161.87,114.72,3.01,182.16,80.35,150.64,172.76-.34,1.01-.7,2.02-1.07,3.03"/>
      <path class="cls-15" d="M473.3,371.44l1.56-2.93c68.56-145.17-81.42-226.28-234.78-171.75-162.93,57.94-215.72,222.73-91.11,284.4,5.11,2.53,12.16,5.4,17.49,7.4l3.37,1.19c-69.52-23.8-104.54-84.29-80.86-153.71,30-87.93,142.82-156.89,251.98-154.03,109.17,2.86,173.35,76.46,143.35,164.39-2.91,8.54-6.61,16.91-11.01,25.04"/>
      <path class="cls-30" d="M462.49,389.58l2.09-3.24c7.16-11.28,12.94-23.08,17.09-35.25,29.31-85.92-33.4-157.84-140.07-160.64-106.67-2.8-216.91,64.59-246.23,150.52-24.32,71.29,14.71,132.95,89.65,153.47l2.85.76.66.17c-76.19-19.7-116.17-81.61-91.71-153.32,29.16-85.46,138.8-152.48,244.9-149.7,106.1,2.78,168.47,74.31,139.32,159.77-4.43,12.97-10.71,25.52-18.55,37.46"/>
      <path class="cls-26" d="M450.02,406.96l2.06-2.66.65-.86c11.07-14.64,19.72-30.37,25.33-46.79,28.43-83.33-32.39-153.08-135.85-155.79-103.46-2.71-210.37,62.64-238.8,145.97-25.31,74.18,20.11,137.59,103.36,152.54l4.11.71c-84.8-13.79-131.45-77.5-105.97-152.19,28.26-82.84,134.54-147.81,237.39-145.11,102.84,2.7,163.31,72.03,135.04,154.87-5.93,17.37-15.29,33.96-27.33,49.31"/>
      <path class="cls-34" d="M433.51,425.96l3.11-3.3c16.98-18.3,29.98-38.84,37.42-60.64,27.49-80.59-31.33-148.05-131.38-150.67-100.05-2.62-203.45,60.58-230.95,141.17-26.31,77.11,26.41,142.19,118.65,149.97l4.98.37c-94.24-6.08-148.62-71.54-122.09-149.32,27.32-80.07,130.05-142.87,229.47-140.27,99.41,2.61,157.86,69.63,130.54,149.7-7.76,22.76-21.62,44.12-39.76,62.98"/>
      <g>
        <path class="cls-33" d="M251.52,502.88c-.24.04-.47.07-.71.11,17.68.46,35.47-1.29,52.86-4.95l2.64-.57c4.12-1.03,9.63-2.3,13.72-3.45-22.27,6.28-45.49,9.47-68.52,8.86"/>
        <path class="cls-32" d="M251.52,502.88c-92.03-2.41-146.13-64.46-120.84-138.58,25.29-74.12,120.39-132.26,212.42-129.85,92.03,2.41,146.13,64.46,120.84,138.58-14.42,42.28-51.56,79.36-97.89,102.97,4.22-2.3,9.88-5.29,14.02-7.71,40.16-23.77,71.72-57.84,84.79-96.14,25.48-74.69-29.03-137.21-121.76-139.64-92.73-2.43-188.56,56.15-214.04,130.84-25.48,74.69,29.03,137.21,121.76,139.64.24-.03.47-.07.71-.11"/>
      </g>
      <path class="cls-11" d="M255.39,502.02c-88.08-2.31-139.86-61.69-115.66-132.64,24.2-70.95,115.23-126.59,203.31-124.28,88.08,2.31,139.86,61.69,115.66,132.64-24.2,70.95-115.23,126.59-203.31,124.28-.24.07-.47.13-.71.19,88.81,2.33,180.6-53.78,205-125.32,24.41-71.54-27.81-131.42-116.62-133.74-88.81-2.33-180.6,53.78-205,125.32-24.41,71.54,27.81,131.42,116.62,133.74.24-.06.47-.12.71-.19"/>
      <path class="cls-19" d="M263.09,498.97c-79.73-2.09-126.6-55.84-104.69-120.06,21.91-64.22,104.3-114.59,184.03-112.5,79.73,2.09,126.6,55.84,104.69,120.06-21.91,64.22-104.3,114.59-184.03,112.5-.23.12-.47.24-.7.35,80.52,2.11,163.73-48.75,185.85-113.61,22.13-64.85-25.21-119.14-105.73-121.25s-163.73,48.75-185.85,113.61c-22.13,64.85,25.21,119.14,105.73,121.25.23-.12.47-.23.7-.35"/>
      <path class="cls-4" d="M266.93,496.78c-75.33-1.97-119.61-52.76-98.91-113.44,20.7-60.67,98.55-108.26,173.87-106.29,75.33,1.97,119.61,52.76,98.91,113.44-20.7,60.67-98.55,108.26-173.87,106.29-.23.15-.47.29-.7.44,76.15,2,154.84-46.11,175.76-107.44,20.92-61.33-23.84-112.67-99.99-114.67-76.15-2-154.84,46.11-175.76,107.44-20.92,61.33,23.84,112.67,99.99,114.67.23-.14.47-.29.7-.44"/>
      <path class="cls-12" d="M274.52,491.06c-66.11-1.73-104.98-46.3-86.81-99.55,18.17-53.25,86.49-95.01,152.6-93.28,66.11,1.73,104.98,46.3,86.81,99.55-18.17,53.25-86.49,95.01-152.6,93.28-.23.2-.46.4-.69.6,66.97,1.76,136.19-40.55,154.59-94.5,18.4-53.95-20.97-99.1-87.94-100.86-66.97-1.76-136.19,40.55-154.59,94.5s20.97,99.1,87.94,100.86c.23-.2.46-.39.69-.6"/>
      <path class="cls-18" d="M278.27,487.54c-61.31-1.61-97.35-42.94-80.5-92.32,16.85-49.38,80.2-88.11,141.51-86.5,61.31,1.61,97.35,42.94,80.5,92.32-16.85,49.38-80.2,88.11-141.51,86.5-.23.23-.45.45-.68.68,62.19,1.63,126.47-37.66,143.56-87.75,17.09-50.09-19.47-92.03-81.67-93.66-62.19-1.63-126.47,37.66-143.56,87.75-17.09,50.09,19.47,92.03,81.67,93.66.23-.22.46-.45.68-.68"/>
      <path class="cls-27" d="M281.98,483.58c-56.37-1.48-89.51-39.48-74.02-84.89s73.75-81.02,130.12-79.54c56.37,1.48,89.51,39.48,74.02,84.89s-73.75,81.02-130.12,79.54c-.22.25-.45.51-.68.76,57.28,1.5,116.48-34.68,132.22-80.82,15.74-46.14-17.93-84.76-75.22-86.26-57.28-1.5-116.48,34.68-132.22,80.82s17.93,84.76,75.22,86.26c.23-.25.45-.5.68-.76"/>
      <path class="cls-37" d="M285.64,479.18c-51.32-1.34-81.49-35.94-67.39-77.28,14.1-41.34,67.14-73.75,118.45-72.41s81.49,35.94,67.39,77.28c-14.1,41.34-67.14,73.75-118.45,72.41-.22.28-.45.56-.67.84,52.25,1.37,106.26-31.64,120.62-73.73,14.36-42.09-16.36-77.32-68.62-78.69-52.25-1.37-106.26,31.64-120.62,73.73-14.36,42.09,16.36,77.32,68.62,78.69.22-.28.45-.56.67-.84"/>
    </g>
  </g>
</svg>