<?xml version="1.0" encoding="UTF-8"?>
<svg id="Layer_2" data-name="Layer 2" xmlns="http://www.w3.org/2000/svg" xmlns:xlink="http://www.w3.org/1999/xlink" viewBox="0 0 618.31 239.47">
  <defs>
    <style>
      .cls-1 {
        fill: url(#linear-gradient);
        stroke-width: 0px;
      }
    </style>
    <linearGradient id="linear-gradient" x1="309.15" y1="18.86" x2="309.15" y2="341.87" gradientUnits="userSpaceOnUse">
      <stop offset="0" stop-color="#d923ac"/>
      <stop offset=".66" stop-color="#20bbcc"/>
      <stop offset="1" stop-color="#fff"/>
    </linearGradient>
  </defs>
  <g id="Layer_1-2" data-name="Layer 1">
    <path class="cls-1" d="M441.39,39.91l-.37-.41h-74.49c-5.58,0-11.37.3-17.51.62-2.45.13-4.92.26-7.39.37h0s-.05,0-.05,0c-4.16.18-8.31.31-12.41.29l-.03-.2-1.42.18c-6.35-.09-12.54-.57-18.31-1.81-10.08-2.17-19.15-10.77-27.92-19.09-11.14-10.57-22.66-21.5-36.67-19.65-1.68.22-3.31.56-4.89.99l-.72-.27c-.07.18-.14.37-.2.55-10.54,3.19-18.84,10.7-26.9,18.01-9.83,8.92-20,18.15-34.43,20.02l-.46.06L0,237.98h2.76c18.64,0,37.63.19,55.99.38,36.81.37,74.87.76,112.2-.38,14.02-.43,22.36-2.02,34.69-10.31,4.71-3.17,9.01-7.84,13.16-12.35,5.96-6.48,12.13-13.17,19.7-15.76,16.03-5.49,28.11,5.91,40.91,17.97,4.53,4.27,9.13,8.6,13.97,12.18-.02.41-.04.82-.05,1.24l1.9.08c4.31,2.96,8.83,5.26,13.66,6.31,7.42,1.62,15.4,2.14,23.57,2.14,7.12,0,14.38-.39,21.53-.77,6.91-.37,13.44-.72,19.68-.72h244.63L441.39,39.91ZM212.47,194.61c-7.23,7.29-14.64,14.76-24.76,18.3,1.94-5.75,3.81-11.54,5.62-17.34,8.12-4.11,14.87-10.8,21.45-17.34.71-.71,1.42-1.41,2.13-2.11-.54,2.42-1.09,4.85-1.63,7.26-.8,3.59-1.61,7.21-2.43,10.84-.13.13-.26.26-.38.39ZM132.65,215.48l8.47-15.31c7.81.39,15.71.73,23.38.58-1.32,2.74-2.64,5.48-3.95,8.2-1.01,2.1-2.04,4.23-3.06,6.36-8.27.1-16.56.15-24.84.17ZM156.3,217.8c-2.9,6.05-5.82,12.16-8.66,18.22-8.81.13-17.64.2-26.46.23l10.11-18.28c8.34-.02,16.68-.07,25.01-.16ZM78.52,215.3c4.02-5.33,8.07-10.66,12.14-15.97h22.47c-3.5,5.33-7.02,10.7-10.54,16.11-8.07-.04-16.09-.09-24.06-.14ZM100.98,217.91c-3.94,6.05-7.87,12.12-11.72,18.17l.13.08c-8.76-.06-17.48-.14-26.14-.23,4.37-6.03,8.86-12.09,13.42-18.16,8.05.06,16.16.11,24.31.15ZM174.77,46.04c3.96-.24,7.57-.94,10.91-1.98-.79,1.03-1.58,2.05-2.38,3.08-2.98.47-6.31.71-10.22.79l1.69-1.89ZM199.18,37.39c-.88,1.73-1.75,3.46-2.66,5.19-3.14,1.74-6.16,2.98-9.52,3.81,1.01-1.31,2.03-2.63,3.04-3.94,3.28-1.4,6.3-3.12,9.14-5.06ZM211.71,27.13c-.97,2.36-1.96,4.7-2.97,7.04,0,0,0,0,0,0-3.02,2.32-5.67,4.27-8.15,5.91,1.03-2,2.06-3.99,3.06-6,2.8-2.22,5.45-4.59,8.07-6.97ZM224.04,16.4c-.56,1.53-1.12,3.06-1.68,4.59-1.27,1.27-2.51,2.55-3.72,3.8-1.93,2-3.8,3.93-5.65,5.69,1-2.4,1.99-4.8,2.95-7.21,2.67-2.42,5.33-4.75,8.1-6.87ZM301.64,40.07c-3.48-1.85-6.87-4.29-10.18-7.03.04-.27.08-.55.12-.82,3.79,3.02,7.71,5.62,11.82,7.37l-1.73-.07c0,.19-.02.37-.02.56ZM301.52,42.79c-.03.68-.06,1.36-.09,2.04-3.63-2.02-7.14-4.72-10.56-7.74.06-.4.11-.8.17-1.2,3.38,2.71,6.86,5.11,10.47,6.9ZM327.52,47.39l.29,2.31c-3.69,0-7.31-.15-10.8-.51l-.1-2.45c3.46.39,7.01.58,10.61.65ZM316.79,44.24l-.07-1.63c3.35.37,6.78.55,10.26.62l.21,1.68c-3.54-.08-7.02-.28-10.4-.67ZM445.26,47.96h-9.87l-1.52-1.88h9.71l1.68,1.88ZM138.56,197.57c-7.21-.36-14.01-.71-20.57-.71h-.28c.39-.59.78-1.19,1.16-1.77,2.61-3.97,5.22-7.96,7.84-11.95,5.52.09,11.45.47,17.71.88.9.06,1.8.12,2.7.18l-7.42,13.43c-.38-.02-.76-.04-1.14-.06ZM152.7,90.16c5.04.2,10.14.38,15.2.35-1.14,1.73-2.3,3.45-3.46,5.17-5.2.02-10.51-.21-15.77-.48,1.34-1.68,2.68-3.36,4.03-5.05ZM157.85,83.67c4.72.3,9.48.57,14.12.58-.81,1.26-1.62,2.52-2.44,3.77-4.94.07-9.96-.07-14.93-.26,1.08-1.36,2.17-2.73,3.25-4.09ZM234.51,13.9c-.22.63-.45,1.27-.68,1.9-3.48,2.07-6.7,4.83-9.8,7.83.16-.43.31-.86.47-1.29,3.19-3.18,6.49-6.17,10-8.45ZM328.13,52.17l.28,2.21c-3.83,0-7.58-.15-11.2-.53l-.09-2.16c3.49.34,7.08.49,10.73.49.09,0,.19,0,.28,0ZM368.8,46.09h10.27c.29.62.58,1.25.87,1.88h-10.42c-.24-.62-.48-1.25-.72-1.88ZM225.24,150.53c1.04-4.55,2.11-9.1,3.18-13.65,6.34-5.11,13.07-8.47,21.17-7.69-.89,3.96-1.76,7.9-2.63,11.84-8.35-.15-15.32,3.94-21.72,9.51ZM124.53,180.62h-19.49c3.1-4.02,6.21-8.06,9.31-12.11h15.72c1.05,0,2.13.02,3.21.04-2.63,4.04-5.26,8.07-7.89,12.09-.28,0-.58-.01-.86-.01ZM174.93,84.22c3.4-.08,6.7-.33,9.85-.83-.67,1.25-1.35,2.5-2.03,3.74-.11.02-.22.04-.33.05-3.22.42-6.54.64-9.89.76.81-1.24,1.61-2.48,2.4-3.72ZM468.82,184.84c-2.03-2.15-4.07-4.17-6.06-6.14-.15-.15-.3-.3-.45-.45.15-.06.31-.13.46-.19,5.74-2.39,11.66-4.85,17.85-6.55,2.3,3.23,4.61,6.45,6.92,9.64-.51.06-1.03.1-1.55.16-5.8.71-11.55,2.07-17.17,3.53ZM444.15,190.48c-1.52-1.69-2.91-3.33-4.2-4.93,6.7-1.05,13.23-3.53,19.87-6.27.4.39.79.79,1.19,1.18,1.67,1.65,3.37,3.34,5.06,5.1-.57.15-1.15.3-1.72.46-6.86,1.83-13.54,3.59-20.21,4.47ZM415.71,178.81c-1.33-3.01-2.62-6.04-3.87-9.1.29.17.57.34.87.51,6.67,3.74,12.49,5.56,17.91,6.06,1.39,2.48,2.93,4.85,4.65,7.23-6.25.3-12.67-.91-19.5-4.66-.02-.01-.05-.03-.07-.04ZM184.34,89.38c5.27-.88,9.77-2.59,13.79-4.86-.65,1.57-1.31,3.14-1.97,4.71-3.78,2.13-7.98,3.81-13,4.83-.52.11-1.05.2-1.58.29.92-1.65,1.84-3.31,2.76-4.97ZM258.47,23.17c-.33.92-.67,1.83-1,2.75-3.95-1.55-8.16-2.33-12.73-2,.47-1.23.95-2.45,1.43-3.67,4.35-.09,8.41,1.02,12.3,2.92ZM433.71,91.26c.67,1.05,1.33,2.12,1.98,3.2h-14.18c-.29-.55-.56-1.1-.86-1.64l-1.75-3.16h13.79l1.02,1.61ZM460.41,176.36c-1.84-1.84-3.63-3.69-5.34-5.62,2.35-1.06,4.75-2.22,7.27-3.43,2.73-1.31,5.55-2.67,8.55-4.03,1.02-.46,2.03-.88,3.05-1.29,1.71,2.47,3.43,4.93,5.16,7.37-6.01,1.73-11.74,4.1-17.28,6.41-.47.2-.94.39-1.41.59ZM469.86,161.04c-3.03,1.37-5.87,2.73-8.61,4.05-2.76,1.33-5.36,2.58-7.87,3.7-2.16-2.61-4.16-5.41-5.91-8.58,6-1.87,12.26-4.63,19.41-7.93.11-.05.22-.09.33-.14,1.74,2.6,3.5,5.19,5.28,7.78-.88.36-1.75.72-2.63,1.12ZM217.28,44.1c3.31-3.61,6.68-7.29,10.41-10.34-.37,1.13-.74,2.25-1.11,3.38-4.32,3.34-8.06,7.47-11.73,11.52-.01.01-.03.03-.04.04.4-1.07.8-2.13,1.2-3.21.43-.46.85-.93,1.27-1.39ZM373.36,65.13c.38,1.02.77,2.04,1.15,3.07-3.78,0-7.8.19-11.99.45l-.93-3.12c3.9-.23,7.65-.39,11.17-.39h.6ZM418.49,94.01c.08.15.15.3.23.44h-15.76c-.66-1.61-1.31-3.21-1.97-4.8h15.09l2.41,4.36ZM433.1,130.05c1.17,3.52,2.36,7.08,3.62,10.66-5.54.25-11.11.17-16.75-.4-1.97-5.9-3.98-11.69-6.04-17.35,5.6.06,11.2.08,16.8.08.8,2.35,1.59,4.69,2.36,7.01ZM209.21,127.04c-3.88,3.38-8.24,6.09-12.96,8.28,1.35-3.53,2.67-7.08,3.97-10.65,4.21-2.46,8.53-5.66,13.38-9.84-1,3.66-1.99,7.3-2.98,10.94-.47.42-.94.85-1.41,1.26ZM216.69,75.89c3.01-2.72,6.17-5.45,9.72-8.06.31-.22.6-.42.91-.64-.68,2.19-1.35,4.39-2.01,6.59-1.17.89-2.38,1.82-3.63,2.81-2.56,2.01-4.88,3.96-7.09,5.86.71-2.19,1.41-4.38,2.11-6.56ZM219.84,66.06c2.01-1.92,4.08-3.84,6.28-5.67,1.51-1.25,2.97-2.35,4.39-3.33-.68,2.12-1.35,4.23-2.02,6.36-1.16.74-2.33,1.54-3.54,2.42-2.43,1.78-4.66,3.61-6.78,5.44.55-1.71,1.1-3.43,1.64-5.13,0-.03.02-.06.03-.09ZM226.31,45.92c3.13-2.86,6.46-5.28,10.27-6.93-.61,1.73-1.2,3.46-1.79,5.2-1.29.64-2.6,1.38-3.93,2.25-2.18,1.42-4.26,3.06-6.27,4.82.57-1.78,1.15-3.55,1.73-5.33ZM375.43,70.66c.43,1.16.86,2.32,1.29,3.48-4.03.08-8.16.25-12.42.46l-1.05-3.53c4.05-.24,7.95-.42,11.58-.42h.6ZM400.69,136.45c-1.41-4.6-2.86-9.18-4.34-13.75,1.13,0,2.26.02,3.38.04,3.84.09,7.7.14,11.56.19,2.03,5.58,4.03,11.27,5.98,17.08-5.41-.68-10.9-1.82-16.51-3.54-.02,0-.05-.01-.07-.02ZM239.6,37.87c4.85-1.47,9.39-1.34,13.73-.08-.43,1.28-.87,2.56-1.29,3.85-4.45-.91-9.15-.67-14.18,1.22.57-1.66,1.16-3.32,1.75-4.98ZM338.47,113.66l-.85-6.63c5.13-.06,10.32-.27,15.52-.55l1.42,6.7c-5.44.29-10.83.48-16.09.49ZM301.74,94.74c2.27.9,4.65,1.64,7.17,2.17,2.51.52,5.09.92,7.71,1.24l.23,5.41c-2.53-.32-5.01-.72-7.43-1.23-2.85-.6-5.45-1.49-7.89-2.59.07-1.67.15-3.33.22-5ZM299.1,98.55c-5.78-3.08-10.6-7.38-15.37-12.03.15-1,.29-2,.44-3.01,4.52,3.91,9.47,7.54,15.15,10.18-.07,1.62-.14,3.24-.21,4.86ZM319.1,98.42c4.88.48,9.91.68,15.02.68l.7,5.48c-5.28,0-10.47-.21-15.48-.74l-.23-5.43ZM336.6,99.07c4.91-.05,9.88-.25,14.85-.52l1.17,5.49c-5.13.28-10.26.49-15.31.54l-.7-5.51ZM336.29,96.62l-.66-5.17c.25,0,.5,0,.75,0,4.45,0,8.97-.13,13.49-.31l1.06,4.97c-4.9.26-9.8.46-14.64.51ZM333.8,96.63c-5.05,0-10.01-.21-14.8-.7l-.23-5.33c4.65.51,9.46.75,14.37.83l.66,5.2ZM316.51,95.64c-2.41-.3-4.79-.68-7.1-1.16-2.67-.56-5.18-1.36-7.56-2.35.08-1.74.15-3.47.23-5.21,2.18.88,4.44,1.61,6.82,2.12,2.4.52,4.87.92,7.38,1.26l.23,5.35ZM299.42,91.03c-5.52-2.69-10.33-6.4-14.84-10.42.22-1.48.43-2.96.65-4.44,4.46,3.77,9.18,7.2,14.42,9.69-.07,1.72-.15,3.45-.23,5.17ZM282.38,78.6c-1.69-1.57-3.35-3.17-5-4.76-3.29-3.17-6.53-6.3-9.9-9,.32-1.28.65-2.57.98-3.85,2.6,2.21,5.2,4.63,7.86,7.12,2.2,2.06,4.42,4.13,6.69,6.13-.21,1.45-.42,2.9-.63,4.36ZM275.66,75.62c2.02,1.95,4.11,3.96,6.29,5.94-.14.94-.27,1.88-.41,2.82-.33-.33-.66-.66-1-.99-3.09-3.07-6.28-6.24-9.74-9.17-1.64-1.4-3.21-2.63-4.73-3.75.25-1,.5-2,.75-3.01,2.91,2.44,5.81,5.23,8.84,8.16ZM269.2,76.1c3.38,2.87,6.54,6.01,9.6,9.04.77.76,1.53,1.52,2.3,2.27-.3,2.08-.61,4.16-.91,6.24-1.68-1.51-3.32-3.03-4.91-4.52-3.85-3.58-7.56-7.05-11.4-9.83.51-2.07,1.03-4.16,1.55-6.24,1.21.92,2.47,1.93,3.78,3.04ZM283.28,89.54c4.79,4.59,9.73,8.77,15.69,11.74-.08,1.86-.16,3.72-.24,5.58-6.2-3.06-11.51-7.08-16.33-11.25.29-2.02.59-4.04.88-6.07ZM301.4,102.39c2.33.98,4.8,1.78,7.49,2.36,2.62.56,5.31.98,8.05,1.32l.27,6.25c-2.67-.4-5.27-.88-7.76-1.5-2.94-.73-5.69-1.69-8.29-2.83.08-1.86.16-3.73.24-5.59ZM319.44,106.35c5.08.51,10.33.72,15.66.72.01,0,.02,0,.03,0l.84,6.58c-5.62-.06-11.09-.34-16.26-.98l-.27-6.32ZM355.64,106.34c2.54-.15,5.08-.31,7.6-.47,2.6-.16,5.14-.32,7.65-.47l1.96,6.59c-.61.04-1.21.08-1.82.12-4.64.32-9.32.64-13.98.9l-1.42-6.69ZM363.08,103.41c-2.65.17-5.31.33-7.97.49l-1.17-5.48c2.42-.14,4.83-.29,7.24-.44,2.5-.16,4.94-.3,7.36-.44l1.62,5.44c-2.33.14-4.69.28-7.08.44ZM361.04,95.51c-2.53.16-5.06.31-7.61.46l-1.05-4.94c3.46-.16,6.93-.33,10.37-.52,1.23-.07,2.44-.13,3.65-.19l1.42,4.78c-2.23.13-4.49.27-6.78.41ZM362.62,88.04c-3.57.19-7.17.38-10.76.54l-.81-3.79c3.79-.22,7.58-.47,11.35-.74.7-.05,1.39-.1,2.08-.14l1.18,3.97c-1.02.05-2.02.1-3.06.16ZM349.35,88.69c-4.72.19-9.42.31-14.04.29l-.46-3.6c4.49-.02,9.08-.18,13.7-.43l.8,3.74ZM332.82,88.95c-4.84-.08-9.59-.33-14.16-.84l-.15-3.53c4.43.53,9.07.76,13.85.8l.46,3.57ZM316.17,87.79c-2.3-.31-4.56-.69-6.76-1.17-2.52-.54-4.92-1.35-7.22-2.34.05-1.26.11-2.53.17-3.79,2.1.98,4.26,1.79,6.49,2.36,2.3.58,4.7,1.03,7.17,1.4l.15,3.55ZM299.77,83.14c-5.09-2.57-9.71-6.07-14.12-9.88.19-1.34.39-2.68.58-4.02,4.36,3.84,8.88,7.38,13.7,10.01-.06,1.3-.11,2.59-.17,3.89ZM283.43,71.31c-1.83-1.65-3.64-3.33-5.43-5.01-2.96-2.77-5.9-5.51-8.88-7.98.32-1.27.64-2.53.97-3.8,2.93,2.49,5.84,5.21,8.78,7.97,1.7,1.59,3.41,3.2,5.14,4.77-.2,1.35-.39,2.69-.59,4.04ZM267.01,56.62c-4.68-3.63-9.51-6.46-14.78-7.59.47-1.48.96-2.95,1.44-4.43,4.98,1.47,9.69,4.46,14.32,8.18-.33,1.28-.66,2.56-.98,3.84ZM266.35,59.24c-.33,1.32-.67,2.63-1,3.95-4.75-3.47-9.79-5.95-15.55-6.41.55-1.78,1.09-3.56,1.66-5.34,5.28,1.05,10.11,3.98,14.9,7.8ZM249.07,59.12c5.76.3,10.75,2.87,15.63,6.63-.27,1.06-.53,2.12-.79,3.18-6.01-4.04-11.13-5.81-16.09-5.72.41-1.37.84-2.73,1.26-4.09ZM263.27,71.48c-.53,2.11-1.06,4.23-1.58,6.33-5.11-3.29-10.53-5.23-16.84-4.58.73-2.53,1.48-5.05,2.23-7.57,4.97-.3,10.02,1.5,16.18,5.81ZM261.08,80.32c-.3,1.23-.6,2.45-.9,3.67-6.52-3.43-12.26-4.08-17.54-2.93.5-1.78,1-3.56,1.5-5.34,6.34-.93,11.7,1.05,16.93,4.6ZM263.24,81.88c3.38,2.56,6.75,5.7,10.35,9.06,1.98,1.85,4.03,3.75,6.17,5.64-.14.96-.28,1.91-.42,2.87-4.25-4.2-8.69-8.48-13.9-12.19-1.03-.73-2.04-1.38-3.03-1.99.27-1.13.55-2.25.83-3.38ZM281.98,98.5c4.89,4.14,10.3,8.08,16.64,11.06-.08,1.9-.17,3.79-.25,5.69-6.36-3.51-11.56-8.44-16.84-13.64.15-1.03.3-2.07.45-3.1ZM301.05,110.63c2.46,1.02,5.05,1.9,7.81,2.58,2.72.67,5.55,1.2,8.46,1.61l.25,5.98c-2.77-.37-5.5-.83-8.16-1.4-3.14-.68-5.98-1.67-8.63-2.91.08-1.95.17-3.9.26-5.86ZM319.81,115.16c5.26.63,10.79.91,16.47.96l.77,6c-5.78-.08-11.47-.36-16.99-1l-.25-5.96ZM338.78,116.13c5.34-.02,10.8-.22,16.3-.51l1.3,6.13c-5.64.24-11.27.4-16.84.39l-.77-6.01ZM357.58,115.48c4.54-.26,9.1-.57,13.63-.88.8-.06,1.58-.11,2.37-.16l1.9,6.37c-2.34.11-4.7.24-7.1.36-3.15.16-6.32.33-9.49.47l-1.31-6.15ZM376.11,114.27c5.04-.34,9.91-.64,14.56-.82.76,2.26,1.53,4.53,2.28,6.79-4.86.04-9.83.22-14.93.45l-1.91-6.42ZM375.39,111.84l-1.95-6.56c4.92-.27,9.69-.46,14.29-.49.71,2.07,1.42,4.14,2.13,6.21-4.63.2-9.47.5-14.47.84ZM372.71,102.84l-1.62-5.44c4.78-.25,9.41-.44,13.9-.46.63,1.79,1.25,3.59,1.88,5.39-4.58.05-9.3.24-14.16.51ZM370.36,94.96l-1.42-4.77c4.65-.23,9.13-.41,13.46-.49.57,1.59,1.16,3.19,1.72,4.78-4.45.04-9.04.22-13.76.48ZM368.21,87.75l-1.19-4.01c4.5-.3,8.84-.57,12.97-.72.51,1.41,1.01,2.81,1.52,4.22-4.29.09-8.72.28-13.3.51ZM366.3,81.31l-1.27-4.27c4.33-.22,8.52-.38,12.6-.44.49,1.33.99,2.65,1.47,3.98-4.1.17-8.38.43-12.81.73ZM363.77,81.49c-.51.04-1.02.07-1.53.11-3.89.27-7.8.54-11.7.77l-.96-4.52c3.07-.14,6.15-.3,9.2-.47,1.25-.07,2.48-.13,3.71-.2l1.28,4.31ZM348.04,82.5c-4.56.24-9.08.41-13.49.42l-.6-4.68c.25,0,.5,0,.75,0,4.09,0,8.23-.12,12.37-.29l.97,4.54ZM332.05,82.9c-4.72-.05-9.3-.29-13.64-.83l-.2-4.65c4.31.48,8.74.72,13.24.79l.6,4.68ZM315.91,81.73c-2.22-.34-4.38-.76-6.45-1.28-2.4-.61-4.72-1.52-6.98-2.66.06-1.32.12-2.65.17-3.97,2.04.93,4.12,1.66,6.24,2.12,2.23.48,4.51.87,6.82,1.18l.2,4.61ZM300.06,76.49c-4.67-2.71-9.1-6.32-13.4-10.17.15-1.07.31-2.13.46-3.2,4.23,3.69,8.57,7.06,13.1,9.5-.06,1.29-.11,2.58-.17,3.88ZM284.45,64.3c-1.3-1.2-2.59-2.41-3.88-3.61-3.22-3.02-6.47-6.06-9.79-8.81.25-.97.5-1.95.75-2.92,2.73,2.35,5.46,4.89,8.22,7.46,1.7,1.58,3.42,3.18,5.15,4.74-.15,1.05-.3,2.1-.46,3.15ZM268.66,50.18c-4.53-3.53-9.23-6.42-14.22-7.93.41-1.22.82-2.44,1.23-3.66,4.74,1.83,9.27,4.92,13.76,8.6-.26,1-.52,1.99-.77,2.99ZM251.27,44.01c-.5,1.54-1.01,3.07-1.5,4.61-4.55-.49-9.45.32-14.86,2.97.62-1.87,1.25-3.74,1.88-5.6,5.17-2.36,9.95-2.83,14.48-1.97ZM248.96,51.09c-.59,1.86-1.16,3.74-1.74,5.61-4.64.12-9.74,1.54-15.52,4.77.68-2.16,1.38-4.32,2.08-6.47,5.59-3.19,10.57-4.28,15.18-3.9ZM246.47,59.14c-.44,1.43-.88,2.86-1.31,4.29-5.24.78-10.46,3.57-16.53,7.9.64-2.11,1.29-4.23,1.95-6.33,6.03-3.78,11.22-5.55,15.89-5.86ZM244.4,66.03c-.75,2.54-1.51,5.09-2.24,7.64-4.95,1.06-10.45,3.68-16.75,8.42.67-2.28,1.35-4.55,2.03-6.83,6.53-4.92,11.81-8.15,16.96-9.23ZM241.42,76.3c-.53,1.85-1.05,3.7-1.56,5.55-6.4,2.2-12.17,6.94-17.91,12.28.75-2.65,1.52-5.31,2.29-7.96,6.59-5.43,12.2-8.52,17.19-9.86ZM220.63,98.76c6.35-6.06,12.16-11.4,18.43-14.05-.73,2.66-1.45,5.32-2.16,7.98-6.12,2.91-11.52,7.96-17.07,13.16-.53.49-1.06.99-1.6,1.49.79-2.86,1.59-5.72,2.39-8.58ZM241.9,83.71c5.29-1.48,11-.93,17.68,2.76-.47,1.95-.95,3.9-1.41,5.85-7.08-2.79-13.03-2.66-18.38-.81.7-2.6,1.4-5.21,2.12-7.8ZM261.8,87.79c.73.46,1.46.95,2.21,1.48,5.45,3.89,10.09,8.47,14.57,12.9.11.1.21.21.31.31-.22,1.5-.44,2.99-.65,4.49-5.2-5.3-10.77-10.36-17.78-13.65.44-1.84.89-3.68,1.33-5.53ZM281.09,104.63c5.28,5.16,10.59,9.97,17.16,13.36-.1,2.34-.2,4.68-.31,7.03-6.05-3.83-11.03-9.02-16.19-14.41-.44-.46-.89-.93-1.34-1.4.22-1.53.44-3.05.67-4.58ZM300.67,119.15c2.53,1.11,5.24,2.03,8.22,2.67,2.87.62,5.81,1.1,8.79,1.49l.35,8.35c-2.88-.41-5.75-.95-8.58-1.66-3.34-.83-6.33-2.06-9.1-3.57.11-2.43.21-4.86.32-7.29ZM320.17,123.63c5.6.62,11.36.9,17.2.97l1.05,8.25c-5.97.03-11.97-.17-17.89-.87l-.36-8.36ZM339.86,124.62c.14,0,.27,0,.41,0,5.51,0,11.07-.18,16.64-.42l1.73,8.14c-2.22.06-4.43.13-6.63.2-3.67.12-7.38.24-11.1.29l-1.05-8.21ZM359.41,124.09c3.04-.14,6.07-.29,9.09-.45,2.6-.14,5.16-.27,7.7-.39l2.79,9.37c-5.97-.43-11.93-.45-17.84-.33l-1.74-8.2ZM378.75,123.13c5.13-.23,10.13-.4,15.01-.42,1.4,4.3,2.78,8.61,4.11,12.94-5.4-1.44-10.81-2.31-16.23-2.81l-2.89-9.71ZM399.78,120.27c-1.4-.03-2.81-.04-4.23-.05-.75-2.3-1.53-4.59-2.3-6.88,2.08-.06,4.11-.1,6.08-.1h8.35c.9,2.38,1.8,4.78,2.69,7.2-3.54-.05-7.07-.1-10.59-.18ZM399.33,110.77c-2.24,0-4.54.05-6.9.13-.69-2.04-1.38-4.09-2.09-6.13h14.07c.78,1.99,1.56,3.98,2.33,6h-7.41ZM389.48,102.3c-.62-1.79-1.24-3.58-1.87-5.37h13.69c.72,1.78,1.44,3.56,2.15,5.37h-13.97ZM386.74,94.45c-.57-1.6-1.15-3.19-1.72-4.79.4,0,.82-.02,1.22-.02h12.07c.66,1.59,1.32,3.19,1.98,4.8h-13.55ZM386.24,87.18c-.69,0-1.41.02-2.11.03-.51-1.42-1.02-2.84-1.54-4.26,1.42-.04,2.83-.06,4.19-.06h8.68c.61,1.43,1.21,2.85,1.82,4.3h-11.05ZM386.79,80.41c-1.65,0-3.35.03-5.08.08-.48-1.31-.97-2.61-1.45-3.92.16,0,.33,0,.49,0h12.02c.55,1.28,1.1,2.55,1.66,3.84h-7.64ZM380.75,74.09c-.46,0-.94.01-1.4.02-.43-1.15-.85-2.3-1.28-3.45h12.12c.5,1.14,1,2.28,1.5,3.43h-10.95ZM361.76,74.74c-1.04.06-2.06.11-3.12.17-3.18.17-6.39.34-9.59.49l-.71-3.32c1.95-.13,3.9-.27,5.84-.4,2.22-.16,4.39-.31,6.53-.44l1.05,3.51ZM346.55,75.5c-4.33.18-8.66.29-12.92.26l-.38-3c4.15-.07,8.36-.27,12.6-.54l.7,3.27ZM331.13,75.73c-4.44-.08-8.81-.32-13.03-.81l-.12-2.71c3.91.43,8,.6,12.2.6.19,0,.38,0,.57,0l.37,2.92ZM315.61,74.61c-2.1-.3-4.17-.65-6.19-1.09-2.26-.49-4.47-1.32-6.65-2.39.04-.86.08-1.72.11-2.58,1.92.84,3.9,1.54,5.97,2.07,2.13.54,4.36.96,6.65,1.28l.11,2.7ZM300.35,69.86c-4.39-2.53-8.64-5.97-12.8-9.67.07-.51.15-1.02.22-1.53,3.97,3.37,8.13,6.43,12.68,8.76-.04.81-.07,1.63-.11,2.45ZM285.34,58.19c-1.3-1.19-2.6-2.39-3.89-3.59-3.04-2.82-6.1-5.67-9.22-8.3.13-.51.26-1.02.4-1.53,2.08,1.85,4.14,3.79,6.22,5.76,2.2,2.08,4.43,4.17,6.71,6.2-.07.49-.14.98-.21,1.47ZM270.11,44.57c-4.37-3.49-8.89-6.47-13.64-8.3.23-.67.46-1.33.69-2,4.73,1.92,9.1,5.04,13.38,8.68-.14.54-.28,1.08-.42,1.62ZM254.13,35.48c-4.27-1.27-8.75-1.56-13.51-.44.27-.74.52-1.48.79-2.22,4.88-1.02,9.3-.68,13.42.61-.23.68-.47,1.36-.7,2.04ZM237.68,35.91c-.18.06-.36.12-.55.19-3.44,1.28-6.52,3.15-9.37,5.38.31-.95.63-1.91.94-2.86,2.51-1.87,5.21-3.43,8.25-4.52.53-.19,1.05-.36,1.57-.52-.28.78-.56,1.56-.84,2.34ZM223.04,56.06c2.92-2.84,5.9-5.43,9.16-7.55.47-.31.94-.58,1.4-.86-.64,1.89-1.26,3.79-1.88,5.68-2.3,1.39-4.69,3.08-7.19,5.15-1.08.9-2.13,1.82-3.16,2.75.55-1.73,1.1-3.45,1.66-5.18ZM213.82,86.36c2.92-2.52,5.94-5.12,9.38-7.83.3-.24.59-.46.89-.7-.69,2.31-1.36,4.62-2.04,6.92-1.28,1.06-2.58,2.18-3.92,3.42-1.51,1.39-2.94,2.73-4.32,4.01-1.21,1.13-2.36,2.2-3.49,3.24.93-2.82,1.86-5.63,2.77-8.45.24-.2.47-.41.71-.61ZM215.52,93.99c1.37-1.28,2.79-2.61,4.3-4,.33-.3.65-.58.97-.87-.8,2.77-1.58,5.54-2.36,8.31-.23.22-.46.44-.7.67-2.2,2.1-4.47,4.27-6.8,6.36-1.61,1.44-3.27,2.76-4.97,3.97.95-2.76,1.88-5.52,2.8-8.28,2.17-1.9,4.38-3.96,6.75-6.17ZM212.58,106.31c1.55-1.39,3.06-2.81,4.54-4.22-.78,2.8-1.56,5.6-2.33,8.4-4.89,4.39-9.16,7.82-13.23,10.48,1.03-2.87,2.04-5.74,3.04-8.62,2.76-1.76,5.43-3.75,7.97-6.03ZM216.99,111.84c.58-.52,1.16-1.06,1.76-1.6.94-.86,1.86-1.73,2.77-2.58,4.91-4.6,9.53-8.91,14.51-11.72-.86,3.24-1.7,6.49-2.53,9.74-5.48,3.39-10.59,8.34-15.81,13.41-1.2,1.16-2.41,2.34-3.64,3.51.97-3.58,1.96-7.16,2.94-10.75ZM238.98,94.47c5.35-2.26,11.23-2.65,18.4.2.07.03.13.06.19.08-.65,2.69-1.29,5.39-1.92,8.07-7.21-2.56-13.43-1.64-19.17,1.19.82-3.18,1.65-6.36,2.49-9.54ZM259.88,95.78c7,3.39,12.45,8.61,17.92,14.28-.23,1.59-.46,3.18-.69,4.77-.14.94-.28,1.89-.41,2.83-3.72-3.6-7.65-7.14-12.18-10.22-2.27-1.54-4.43-2.74-6.52-3.67.63-2.65,1.26-5.31,1.9-7.98ZM279.55,115.18c.14-.95.28-1.91.42-2.86,0,0,0,0,0,0,5.39,5.63,10.9,11.39,17.85,15.51-.11,2.61-.23,5.21-.34,7.82-6.39-3.74-11.62-8.91-17.03-14.29-.52-.52-1.04-1.04-1.57-1.55.22-1.54.45-3.08.67-4.62ZM300.24,129.16c2.64,1.35,5.49,2.46,8.62,3.24,3.07.77,6.18,1.34,9.29,1.77l.31,7.27c-3.08-.17-6.11-.5-9.04-1.13-3.5-.75-6.63-1.92-9.52-3.37.11-2.6.23-5.19.34-7.79ZM320.63,134.49c6.02.69,12.07.88,18.1.84l.7,5.46c-.33.02-.67.05-1,.07-5.81.41-11.73.82-17.5.69l-.3-7.06ZM341.23,135.3c3.64-.05,7.27-.17,10.86-.29,2.35-.08,4.7-.15,7.07-.21l1.18,5.55c-1.88-.1-3.8-.17-5.83-.2-4.09-.05-8.37.18-12.61.46l-.68-5.32ZM361.68,134.75c5.99-.11,12.03-.07,18.07.41l2.59,8.68c-6.16-1.74-12.34-2.82-19.43-3.33l-1.23-5.76ZM382.4,135.4c5.46.55,10.91,1.51,16.31,3.06,1.03,3.38,2.06,6.76,3.05,10.16.29.98.61,1.95.91,2.93-6.36-2.86-12-5.13-17.51-6.86l-2.76-9.28ZM404.14,147.93c-.84-2.9-1.73-5.78-2.6-8.66,5.63,1.63,11.15,2.71,16.58,3.33,1.53,4.61,3.03,9.28,4.49,14.04.3.96.59,1.9.89,2.81-4.5-.91-9.3-2.55-14.68-5.08-1.07-.5-2.1-.98-3.13-1.45-.53-1.66-1.07-3.32-1.55-4.99ZM424.97,155.91c-1.35-4.41-2.75-8.75-4.16-13.04,3.4.3,6.77.46,10.12.46,2.23,0,4.44-.08,6.66-.19,1.77,4.9,3.69,9.83,5.92,14.7.13.29.27.57.41.85-5.87,1.55-11.52,2.08-17.65,1.23-.43-1.29-.86-2.62-1.29-4.01ZM413.02,120.48c-.89-2.43-1.79-4.84-2.69-7.23h16.89c.93,2.44,1.81,4.88,2.66,7.32-5.62,0-11.25-.03-16.86-.09ZM409.39,110.77c-.77-2.02-1.54-4.02-2.32-6h16.69c.88,2,1.71,4,2.5,6h-16.87ZM406.1,102.3c-.71-1.81-1.43-3.59-2.14-5.37h16.06c.92,1.78,1.81,3.57,2.64,5.37h-16.56ZM399.96,87.18c-.6-1.44-1.2-2.87-1.81-4.3h14.18l2.38,4.3h-14.74ZM397.11,80.41c-.55-1.29-1.1-2.57-1.65-3.84h13.38l2.12,3.84h-13.86ZM394.39,74.09c-.5-1.15-1-2.3-1.5-3.43h12.68l1.9,3.43h-13.08ZM391.8,68.18c-.45-1.02-.9-2.05-1.35-3.06h12.06l1.69,3.06h-12.4ZM389.1,68.18h-11.95c-.38-1.02-.76-2.04-1.15-3.06h11.74c.45,1.01.91,2.04,1.36,3.06ZM359.99,68.8c-1.96.13-3.95.27-5.98.41-2.05.14-4.12.29-6.18.43l-.67-3.15c1.86-.12,3.72-.25,5.58-.38,2.15-.15,4.25-.29,6.32-.43l.93,3.12ZM345.34,69.79c-4.17.26-8.33.46-12.4.52l-.41-3.18c3.99-.07,8.05-.26,12.13-.51l.67,3.16ZM330.44,70.34c-4.35,0-8.56-.17-12.57-.63l-.13-3.1c3.79.41,7.74.58,11.81.58.16,0,.33,0,.49,0l.4,3.16ZM315.39,69.39c-2.04-.3-4.03-.68-5.93-1.17-2.24-.57-4.39-1.37-6.47-2.34.04-.92.08-1.85.12-2.77,1.85.8,3.76,1.48,5.74,1.97,2.05.52,4.2.91,6.4,1.22l.13,3.08ZM300.57,64.66c-4.41-2.39-8.48-5.52-12.38-8.91.1-.72.21-1.44.31-2.15,3.83,3.24,7.84,6.17,12.19,8.38-.04.89-.08,1.79-.12,2.68ZM285.97,53.78c-1.84-1.66-3.64-3.36-5.44-5.05-2.42-2.28-4.81-4.53-7.22-6.65.17-.66.35-1.33.52-1.99,1.75,1.6,3.5,3.26,5.26,4.93,2.36,2.24,4.74,4.49,7.18,6.65l-.3,2.11ZM271.23,40.29c-4.22-3.52-8.55-6.53-13.25-8.43.31-.88.61-1.77.93-2.65,4.5,2.17,8.71,5.38,12.86,9.03-.18.68-.36,1.37-.54,2.06ZM255.65,31.03c-4.07-1.29-8.43-1.71-13.23-.93.45-1.2.89-2.41,1.34-3.61,4.64-.55,8.88.16,12.88,1.72-.33.94-.66,1.87-.98,2.81ZM239.56,30.7c-1.13.29-2.27.64-3.45,1.06-2.19.79-4.22,1.81-6.14,3,.4-1.19.8-2.38,1.2-3.58,2.47-1.63,5.1-2.94,7.98-3.76.6-.17,1.2-.32,1.79-.45-.46,1.24-.93,2.47-1.38,3.71ZM212.51,54.85c1.42-1.5,2.81-3.02,4.18-4.53,2.79-3.09,5.52-6.09,8.43-8.73-.33,1-.65,1.99-.97,2.99-3.25,3.02-6.23,6.4-9.17,9.74-1.3,1.47-2.6,2.95-3.94,4.41.49-1.29.98-2.58,1.47-3.87ZM216.83,55.95c1.89-2.15,3.75-4.26,5.65-6.25-.54,1.68-1.08,3.35-1.62,5.03-2.08,2.04-4.1,4.16-6.09,6.26-2.47,2.6-4.97,5.23-7.58,7.69.52-1.34,1.05-2.68,1.56-4.02,2.83-2.75,5.47-5.75,8.07-8.7ZM216.57,62.68c.88-.93,1.76-1.85,2.63-2.75-.51,1.59-1.02,3.19-1.53,4.78-1.19,1.14-2.36,2.29-3.51,3.42-3.49,3.44-6.91,6.79-10.62,9.73.55-1.36,1.1-2.72,1.64-4.08,4.05-3.37,7.75-7.25,11.38-11.08ZM215.9,69.89c.06-.06.11-.11.17-.17-.51,1.6-1.02,3.19-1.53,4.79-.78.71-1.56,1.42-2.33,2.12-4.17,3.82-8.07,7.37-12.41,10.34.65-1.56,1.31-3.13,1.95-4.7,5.12-3.52,9.58-7.89,14.15-12.39ZM213.01,79.24c-.68,2.1-1.36,4.2-2.04,6.31-5.14,4.43-9.84,8.34-15.4,11.32.86-1.97,1.71-3.96,2.55-5.94,5.53-3.25,10.17-7.38,14.89-11.69ZM209.51,90.04c-.95,2.9-1.91,5.8-2.88,8.7-5.2,4.5-10.07,7.86-16.36,9.87,1.26-2.72,2.49-5.44,3.71-8.17,5.81-2.67,10.58-6.26,15.52-10.4ZM205.13,103.2c-.85,2.51-1.7,5.01-2.57,7.52-5.21,3.21-10.81,5.52-16.68,7.17,1.02-2.09,2.02-4.19,3.01-6.29,6.4-1.69,11.38-4.57,16.24-8.39ZM201.3,114.32c-1.02,2.91-2.06,5.8-3.11,8.69-5.7,3.21-11.26,4.99-17.89,5.93,1.4-2.69,2.77-5.39,4.11-8.1,5.9-1.48,11.56-3.59,16.89-6.53ZM196.95,126.44c-1.17,3.18-2.37,6.36-3.58,9.51-.09.25-.2.49-.29.73-6.09,2.43-12.71,4.06-19.68,5.11l1.36-2.46c1.42-2.57,2.81-5.15,4.17-7.73,6.71-.81,12.38-2.36,18.02-5.17ZM191.83,139.81c-1.66,4.19-3.37,8.38-5.14,12.55-6.28,1.32-13.13,1.6-19.96,1.49l5.16-9.33c7-.95,13.71-2.45,19.94-4.71ZM194.98,138.58c5.26-2.2,10.12-5,14.48-8.55-1.1,4.05-2.21,8.11-3.32,12.19-2.81,2.58-5.64,4.8-8.57,6.36-2.45,1.31-5.11,2.3-7.9,3.06,1.82-4.34,3.6-8.7,5.31-13.07ZM211.97,130.25c.29-1.05.58-2.11.86-3.17,2.25-2.05,4.46-4.16,6.59-6.23,4.49-4.36,8.77-8.52,13.19-11.63-.8,3.18-1.6,6.36-2.38,9.54-5.34,3.93-10.25,9.16-15.08,14.31-1.86,1.99-3.7,3.93-5.52,5.77.78-2.87,1.56-5.74,2.34-8.59ZM235.65,107.27c5.85-3.38,12.08-4.66,19.44-2.01-.6,2.55-1.2,5.11-1.79,7.65-.5-.11-.99-.22-1.5-.31-6.93-1.15-12.98.69-18.52,4.09.78-3.14,1.57-6.29,2.37-9.43ZM257.4,106.22c1.83.84,3.73,1.91,5.71,3.25,4.89,3.32,9.11,7.26,13.13,11.2-.3,2.08-.61,4.16-.91,6.24-5.79-5.81-12.01-11.03-19.65-13.38.56-2.43,1.14-4.88,1.71-7.32ZM278.43,122.84c.09.09.18.18.27.27,5.86,5.82,11.51,11.42,18.66,15.32-.13,2.92-.25,5.84-.38,8.77-6.05-3.88-11.26-9.39-16.37-14.79-1.03-1.09-2.06-2.18-3.1-3.26.31-2.11.61-4.21.92-6.31ZM299.78,139.67c2.78,1.3,5.79,2.35,9.11,3.06,3.14.68,6.38,1.03,9.66,1.2l.36,8.57c-3.22.19-6.42.1-9.57-.4-3.6-.57-6.89-1.81-9.96-3.48.13-2.98.26-5.97.39-8.95ZM321.04,144.02c5.82.13,11.75-.28,17.57-.69.38-.03.75-.05,1.14-.08l.68,5.34c-.29.07-.58.14-.86.21-6,1.44-12.11,2.9-18.18,3.5l-.35-8.28ZM342.22,143.08c4.22-.29,8.28-.51,12.26-.45,2.23.03,4.34.11,6.39.23l.46,2.19c-.39.02-.77.02-1.17.04-5.72.35-11.57,1.59-17.32,2.94l-.63-4.94ZM363.44,143.04c7.17.57,13.42,1.75,19.74,3.64l.84,2.82c-5.85-2.73-12.25-4.48-20.16-4.51l-.41-1.95ZM386.03,147.57c5.49,1.82,11.15,4.16,17.63,7.13,1,3.06,2.08,6.08,3.21,9.09-2.38-1.54-4.65-3.08-6.88-4.6-4.38-2.99-8.55-5.83-12.93-8.17l-1.02-3.44ZM406.75,156.14c.34.16.67.31,1.01.47,6.11,2.87,11.53,4.62,16.63,5.49,1.49,4.29,3.05,8.05,4.83,11.55-4.65-.67-9.63-2.4-15.3-5.58-1.22-.69-2.41-1.38-3.56-2.09-1.27-3.25-2.48-6.53-3.61-9.85ZM427.16,162.49c1.65.18,3.27.29,4.86.29,4.41,0,8.67-.68,13.03-1.86,1.78,3.3,3.8,6.21,5.98,8.89-6.46,2.73-12.4,4.43-18.85,4.12-1.87-3.48-3.49-7.19-5.01-11.44ZM446.33,158c-.19-.39-.39-.78-.57-1.19-2.09-4.57-3.91-9.2-5.6-13.83,6.6-.45,13.17-1.32,19.78-2.39,1.45,2.51,2.94,4.98,4.5,7.36.46.7.93,1.4,1.39,2.09-7.31,3.37-13.57,6.14-19.5,7.96ZM439.3,140.57c-1.34-3.79-2.61-7.57-3.85-11.3-.69-2.06-1.39-4.14-2.1-6.23,5.78-.01,11.56-.04,17.3-.09,2.55,5.14,5.19,10.33,7.99,15.35-6.46,1.03-12.89,1.86-19.35,2.27ZM432.51,120.57c-.84-2.43-1.72-4.88-2.64-7.32h15.98c1,1.99,1.98,3.98,2.96,5.95.21.43.42.86.64,1.29-5.62.05-11.27.07-16.93.08ZM428.93,110.77c-.78-2-1.61-4-2.47-6h15.04c1.05,1.99,2.08,4,3.1,6h-15.67ZM425.38,102.3c-.81-1.8-1.66-3.59-2.56-5.37h14.33c1.03,1.77,2.04,3.56,3.02,5.37h-14.79ZM417.54,87.18l-2.38-4.3h13.21l2.74,4.3h-13.57ZM413.79,80.41l-2.12-3.84h12.67l2.45,3.84h-13ZM410.3,74.09l-1.9-3.43h12.17l2.19,3.43h-12.46ZM407.03,68.18l-1.69-3.06h11.7l1.95,3.06h-11.96ZM403.97,62.65l-1.5-2.72h11.26l1.74,2.72h-11.49ZM401.15,62.65h-11.8c-.41-.91-.81-1.82-1.22-2.72h11.52l1.5,2.72ZM386.63,62.65h-11.56c-.34-.91-.68-1.81-1.03-2.72h11.37c.41.9.81,1.82,1.22,2.72ZM372.43,62.66c-3.65,0-7.53.19-11.56.43l-.81-2.74c3.9-.19,7.68-.34,11.36-.39.34.9.68,1.8,1.02,2.69ZM358.33,63.24c-1.89.12-3.81.26-5.77.39-1.97.14-3.95.28-5.92.4l-.63-2.97c2.73-.12,5.45-.26,8.16-.41,1.13-.06,2.24-.12,3.35-.18l.82,2.76ZM344.14,64.19c-4.01.24-8.01.43-11.93.5l-.42-3.27c.24,0,.47,0,.7,0,3.64,0,7.32-.1,11-.25l.64,3.02ZM329.73,64.71c-4.18,0-8.23-.17-12.09-.6l-.15-3.43c3.85.43,7.8.64,11.81.71l.42,3.32ZM315.15,63.79c-1.96-.29-3.87-.65-5.69-1.1-2.15-.54-4.22-1.3-6.23-2.23.04-.97.09-1.95.13-2.92,1.8.75,3.64,1.35,5.54,1.77,2,.43,4.04.78,6.11,1.07l.15,3.42ZM300.81,59.23c-4.2-2.28-8.12-5.27-11.89-8.53.11-.73.21-1.46.32-2.19,3.74,3.11,7.6,5.89,11.7,7.93-.04.93-.08,1.86-.12,2.79ZM286.7,48.73c-1.99-1.8-3.95-3.66-5.9-5.5-2.07-1.96-4.14-3.93-6.26-5.82.16-.62.33-1.25.49-1.87,1.4,1.29,2.8,2.61,4.2,3.94,2.55,2.41,5.13,4.84,7.77,7.14-.1.71-.2,1.41-.31,2.12ZM272.47,35.58c-4.03-3.45-8.21-6.53-12.72-8.67.31-.86.62-1.71.93-2.57,4.22,2.41,8.27,5.69,12.3,9.31-.17.64-.34,1.28-.51,1.93ZM241.95,24.27c-1.14.19-2.29.45-3.48.79-2.16.61-4.18,1.48-6.09,2.52.42-1.23.84-2.46,1.26-3.69,1.42-.86,2.86-1.59,4.34-2.1,1.87-.66,3.68-1.08,5.45-1.32-.49,1.27-1,2.53-1.48,3.8ZM229.09,29.6c-3.97,2.74-7.47,6.21-10.83,9.8.29-.78.57-1.55.86-2.33,3.59-3.87,7.25-7.77,11.09-10.79-.38,1.11-.75,2.21-1.12,3.32ZM213.86,44.17c-3.39,3.68-6.92,7.33-10.76,10.1-.37.27-.73.5-1.1.75.64-1.34,1.27-2.68,1.9-4.02,1.91-1.33,3.89-2.85,5.96-4.61,1.62-1.38,3.26-2.98,4.92-4.71-.31.83-.61,1.66-.92,2.49ZM204.55,56.28c2.51-1.81,4.86-3.95,7.12-6.22-.43,1.15-.86,2.29-1.29,3.44-3.26,3.4-6.71,6.58-10.61,8.91-.61.37-1.23.7-1.86,1.02.7-1.4,1.39-2.81,2.07-4.22,1.51-.86,3.03-1.82,4.57-2.93ZM201.03,64.53c2.61-1.55,4.99-3.46,7.25-5.52-.54,1.42-1.09,2.83-1.64,4.24-3.72,3.56-7.75,6.63-12.41,8.5-.21.08-.44.16-.65.24.85-1.65,1.7-3.31,2.53-4.97,1.66-.71,3.3-1.52,4.91-2.48ZM195.16,74.04c3.5-1.4,6.63-3.41,9.53-5.76-.52,1.33-1.04,2.65-1.57,3.97-4.09,3.33-8.54,6.06-13.62,7.56.83-1.56,1.65-3.13,2.47-4.7,1.1-.32,2.18-.67,3.2-1.07ZM189.08,82.51c4.54-1.16,8.56-3.23,12.25-5.8-.52,1.3-1.04,2.6-1.57,3.89-4.06,2.7-8.56,4.81-13.89,5.97.69-1.26,1.37-2.52,2.05-3.79.39-.09.78-.17,1.17-.27ZM183.66,96.49c4.1-.83,7.7-2.1,10.97-3.68-.82,1.91-1.66,3.82-2.5,5.73-3.96,1.73-8.41,3.03-13.77,3.76-.45.06-.9.1-1.35.15,1.02-1.78,2.03-3.56,3.03-5.34,1.22-.18,2.43-.39,3.62-.63ZM178.69,104.75c4.55-.62,8.46-1.63,11.98-2.94-1.15,2.56-2.32,5.11-3.51,7.66-3.09.72-6.52,1.18-10.5,1.31-1.51.05-3.02.07-4.54.11,1.12-1.92,2.24-3.84,3.35-5.76,1.08-.11,2.15-.22,3.22-.37ZM176.75,113.25c3.35-.11,6.33-.45,9.08-.97-1.02,2.14-2.05,4.28-3.1,6.42-5.39,1.28-10.98,2.05-16.7,2.47,1.56-2.59,3.1-5.18,4.63-7.78,2.03-.04,4.07-.07,6.1-.14ZM181.29,121.58c-1.29,2.59-2.61,5.17-3.96,7.74-4.79.5-10.16.65-16.54.65h-.12c1.27-2.06,2.52-4.13,3.78-6.2,5.75-.35,11.39-1.03,16.84-2.19ZM160.79,132.44c5.73,0,10.69-.13,15.17-.52-1.11,2.08-2.22,4.15-3.37,6.22l-2.26,4.08c-5.84.73-11.89,1.09-18.03,1.2,2.3-3.65,4.58-7.31,6.84-10.99h1.64ZM168.86,144.89l-4.91,8.89c-3.35-.1-6.67-.27-9.9-.44-2.68-.14-5.27-.27-7.79-.36,1.5-2.34,2.99-4.69,4.47-7.05,6.15-.07,12.23-.37,18.13-1.03ZM153.92,155.81c2.84.15,5.75.3,8.68.4l-6.01,10.86c-3.48-.12-6.92-.3-10.28-.47-2.94-.15-5.79-.3-8.56-.41,2.33-3.59,4.65-7.19,6.96-10.81,2.95.09,6.01.24,9.21.41ZM165.38,156.3c6.82.16,13.71-.02,20.15-1.18-1.59,3.7-3.21,7.38-4.86,11.06-6.81,1.01-14.08,1.16-21.29.99l6.01-10.87ZM188.47,154.52c3.63-.85,7.09-2.06,10.26-3.75,2.14-1.14,4.21-2.6,6.23-4.26-1.07,3.9-2.15,7.8-3.24,11.7-1.99,1.46-4.03,2.73-6.14,3.72-3.68,1.74-7.72,2.93-11.98,3.74,1.65-3.71,3.28-7.43,4.87-11.16ZM208.34,143.56c2.87-2.68,5.7-5.69,8.61-8.79,3.99-4.26,8.04-8.57,12.32-12.09-1.04,4.29-2.07,8.57-3.08,12.86-3.82,3.15-7.44,6.8-11.02,10.41-3.3,3.34-6.67,6.73-10.16,9.68,1.12-4.03,2.23-8.05,3.32-12.06ZM232.41,120.28c5.73-4.03,11.92-6.39,18.99-5.23.46.08.9.18,1.35.28-.88,3.81-1.75,7.62-2.6,11.41-7.94-.85-14.69,1.97-20.83,6.39,1.02-4.28,2.05-8.56,3.1-12.84ZM255.14,115.95c7.6,2.38,13.71,7.83,19.75,14.04-.46,3.17-.92,6.34-1.39,9.52-6.05-5.82-12.65-10.79-20.91-12.41.84-3.71,1.69-7.43,2.55-11.16ZM277.06,132.25c.58.61,1.17,1.23,1.75,1.85,5.56,5.88,11.24,11.88,18.04,15.93-.16,3.65-.32,7.3-.48,10.94-5.91-3.83-11.02-9.19-16.03-14.47-1.54-1.62-3.08-3.25-4.66-4.84.46-3.15.91-6.28,1.37-9.41ZM299.27,151.36c2.99,1.5,6.19,2.63,9.69,3.19,3.34.53,6.7.62,10.07.43l.46,10.93c-3.41.5-6.81.63-10.16.15-3.83-.55-7.31-1.84-10.54-3.62.16-3.69.32-7.38.48-11.07ZM321.5,154.78c6.25-.61,12.51-2.1,18.65-3.57.2-.05.4-.1.6-.14l1.05,8.22c-1.05.37-2.1.74-3.14,1.11-5.5,1.97-11.11,3.97-16.7,5.08l-.46-10.7ZM343.17,150.49c5.72-1.35,11.55-2.59,17.15-2.93.53-.03,1.03-.03,1.54-.05l1.47,6.91c-.73.02-1.45.04-2.2.09-5.62.4-11.32,2.04-16.94,3.95l-1.02-7.97ZM364.39,147.48c8.1.13,14.59,2.2,20.6,5.28l2.25,7.55c-6.22-3.36-13.03-5.7-21.38-5.9l-1.47-6.93ZM388.07,154.42c3.52,2.03,6.95,4.37,10.52,6.8,3.11,2.12,6.3,4.29,9.76,6.42,1.2,3.05,2.45,6.06,3.74,9.06-4.06-2.47-7.78-5.1-11.4-7.66-3.44-2.44-6.82-4.83-10.34-6.95l-2.28-7.67ZM433.59,176.44s.08,0,.12,0c6.51,0,12.56-1.89,18.98-4.65,1.68,1.93,3.44,3.77,5.25,5.59-6.6,2.7-13.1,5.07-19.76,5.88-1.7-2.26-3.22-4.51-4.59-6.83ZM483.19,170.85c7.26-1.75,14.9-2.61,22.69-2.96l8.53,11.8c-8.09.05-16.14.39-24.03,1.16-2.4-3.31-4.8-6.65-7.19-10ZM481.65,168.69c-1.79-2.52-3.57-5.06-5.33-7.6,6.98-2.57,13.99-4.08,21.08-4.93l6.75,9.34c-7.71.42-15.27,1.36-22.5,3.19ZM474.86,158.99c-1.8-2.61-3.58-5.23-5.34-7.85,6.79-2.88,13.4-4.71,20-5.86l6.2,8.58c-6.99.92-13.93,2.51-20.87,5.13ZM468.13,149.04c-.54-.82-1.09-1.63-1.62-2.45-1.37-2.09-2.68-4.24-3.96-6.44,4.02-.68,8.06-1.41,12.13-2.16,2.8-.51,5.63-1.03,8.47-1.53l4.75,6.57c-6.5,1.21-13.04,3.11-19.77,6ZM474.24,135.57c-4.37.8-8.69,1.59-12.99,2.31-2.75-4.88-5.34-9.92-7.84-14.95,5.94-.05,11.85-.12,17.71-.18.69,0,1.4-.02,2.1-.02l8.33,11.52c-2.45.44-4.88.88-7.3,1.32ZM471.09,120.27c-6.25.07-12.56.14-18.9.19-.39-.79-.78-1.58-1.17-2.36-.8-1.61-1.6-3.23-2.41-4.86h17.75l5.08,7.02c-.12,0-.23,0-.35,0ZM447.37,110.77c-1.01-2-2.03-4.01-3.08-6h15.94l4.34,6h-17.2ZM442.98,102.3c-.97-1.8-1.95-3.6-2.96-5.37h14.54l3.88,5.37h-15.47ZM438.57,94.45c-.9-1.53-1.82-3.04-2.77-4.53l-.17-.27h13.67l3.47,4.8h-14.2ZM434.05,87.18l-2.74-4.3h13.1l3.11,4.3h-13.46ZM429.73,80.41l-2.45-3.84h12.56l2.78,3.84h-12.89ZM425.7,74.09l-2.19-3.43h12.06l2.48,3.43h-12.35ZM421.93,68.18l-1.95-3.06h11.59l2.21,3.06h-11.85ZM418.4,62.65l-1.74-2.72h11.14l1.97,2.72h-11.38ZM415.08,57.46l-1.54-2.41h10.73l1.75,2.41h-10.93ZM412.15,57.46h-11.05l-1.34-2.41h10.84l1.54,2.41ZM398.4,52.57l-1.18-2.13h10.45l1.36,2.13h-10.63ZM395.57,52.57h-10.79c-.33-.72-.65-1.42-.98-2.13h10.59l1.18,2.13ZM396.94,55.04l1.34,2.41h-11.27c-.37-.81-.73-1.61-1.1-2.41h11.03ZM384.29,57.46h-10.34c-.27,0-.55,0-.82.01-.31-.81-.61-1.62-.91-2.42h10.98c.37.8.73,1.61,1.1,2.41ZM370.49,57.5c-3.63.07-7.33.21-11.16.41l-.76-2.56c3.39-.18,6.68-.3,9.85-.3h1.15c.31.82.62,1.64.93,2.46ZM356.79,58.04c-.92.05-1.82.09-2.76.14-2.84.15-5.69.3-8.54.43l-.51-2.41c1.48-.09,2.96-.19,4.44-.29,2.25-.15,4.45-.29,6.62-.42l.76,2.55ZM342.98,58.72c-3.85.15-7.7.25-11.49.23l-.27-2.14c3.73-.06,7.49-.23,11.26-.46l.5,2.37ZM328.99,58.91c-3.95-.08-7.83-.3-11.6-.73l-.08-1.84c3.59.36,7.3.51,11.07.51.11,0,.23,0,.34,0l.26,2.07ZM314.9,57.86c-1.86-.27-3.69-.59-5.48-.97-2.03-.44-4.01-1.12-5.95-1.98.02-.56.05-1.12.07-1.67,1.74.75,3.52,1.37,5.34,1.78,1.93.44,3.92.77,5.94,1.04l.08,1.81ZM301.05,53.7c-3.95-2.11-7.73-4.94-11.4-8.08.07-.49.14-.97.21-1.46,3.62,3.11,7.35,5.87,11.26,7.91-.02.54-.05,1.08-.07,1.63ZM287.43,43.69c-2.19-1.96-4.35-4-6.49-6.02-1.72-1.62-3.45-3.25-5.19-4.84.14-.53.28-1.07.42-1.6,1.13,1.09,2.26,2.19,3.39,3.3,2.66,2.6,5.34,5.21,8.08,7.68-.07.49-.14.99-.21,1.48ZM273.68,30.97c-3.91-3.44-7.92-6.59-12.16-8.96.29-.79.57-1.59.86-2.38,3.99,2.6,7.86,5.97,11.75,9.64-.15.56-.3,1.13-.45,1.7ZM259.3,20.87c-3.84-1.84-7.87-2.99-12.17-3.08.44-1.1.89-2.2,1.33-3.3,4.11.26,8,1.67,11.76,3.83-.32.85-.62,1.7-.93,2.55ZM244.44,17.87c-2.34.19-4.76.69-7.28,1.57-.79.28-1.56.61-2.33.98.34-.97.67-1.95,1.01-2.92,2.35-1.31,4.8-2.28,7.39-2.73.86-.15,1.72-.25,2.56-.3-.46,1.13-.91,2.26-1.35,3.39ZM231.59,22.24c-3.62,2.34-7.02,5.52-10.31,8.92.24-.65.48-1.3.71-1.95,3.36-3.51,6.81-6.91,10.49-9.57-.3.86-.6,1.73-.89,2.59ZM216.97,35.75s-.05.06-.08.08c-3.01,3.25-5.86,6.33-8.63,8.67-.75.63-1.47,1.22-2.19,1.79.49-1.07.98-2.15,1.46-3.23,3.49-2.48,6.78-5.77,10.17-9.33-.25.67-.49,1.34-.74,2.01ZM201.94,49.35c-3.11,2.12-6.03,3.69-8.93,4.85.69-1.23,1.36-2.47,2.04-3.7,2.71-1.24,5.51-2.83,8.57-4.8-.56,1.22-1.11,2.44-1.68,3.65ZM199.98,53.51c-.62,1.31-1.25,2.62-1.89,3.93-3.04,1.67-6.02,2.84-9.01,3.66.7-1.21,1.38-2.42,2.07-3.63,2.91-.93,5.81-2.2,8.83-3.96ZM196.32,61.07c-.66,1.33-1.32,2.65-1.98,3.98-2.94,1.17-5.98,1.97-9.08,2.51.7-1.17,1.41-2.35,2.1-3.52,2.98-.64,5.95-1.6,8.96-2.97ZM192.7,68.28c-.81,1.59-1.62,3.17-2.44,4.75-2.84.73-5.95,1.19-9.21,1.46.85-1.38,1.7-2.76,2.54-4.15,3.08-.43,6.13-1.08,9.1-2.06ZM188.76,75.91c-.82,1.57-1.65,3.13-2.49,4.7-3.06.61-6.32.95-9.7,1.08.97-1.53,1.92-3.07,2.87-4.61,3.25-.2,6.38-.57,9.32-1.18ZM181.28,89.8c-.93,1.68-1.86,3.37-2.81,5.05-3.57.48-7.26.72-11.03.8,1.15-1.72,2.31-3.44,3.44-5.17,3.51-.08,6.99-.3,10.39-.68ZM165.78,98.15c3.8-.04,7.55-.22,11.19-.63-1,1.76-2,3.53-3.01,5.28-3.83.36-7.76.52-11.73.56,1.19-1.74,2.38-3.48,3.55-5.22ZM160.51,105.86c4.03-.01,8.02-.15,11.95-.46-1.07,1.85-2.15,3.7-3.24,5.55-4.1.08-8.21.12-12.32.13,1.21-1.73,2.41-3.47,3.62-5.22ZM167.74,113.46c-1.56,2.64-3.14,5.28-4.72,7.9-4.47.24-9,.29-13.57.22,1.92-2.67,3.82-5.34,5.71-8.02,4.2,0,8.4-.03,12.59-.1ZM161.46,123.92c-1.23,2.02-2.46,4.03-3.69,6.05h-14.41c1.45-1.98,2.88-3.96,4.31-5.94,4.63.1,9.24.09,13.79-.11ZM156.24,132.44c-2.28,3.69-4.57,7.36-6.88,11.02-5.22.03-10.49-.11-15.75-.33,2.66-3.55,5.3-7.12,7.93-10.69h14.7ZM147.8,145.94c-1.47,2.32-2.94,4.64-4.42,6.95-.98-.02-1.95-.04-2.9-.04h-14.18c1.85-2.44,3.69-4.88,5.53-7.33,5.32.24,10.66.41,15.97.41ZM140.48,155.33c.43,0,.89.01,1.33.02-2.31,3.6-4.62,7.19-6.95,10.77-1.62-.04-3.23-.08-4.79-.08h-13.82c2.73-3.56,5.46-7.13,8.18-10.71h16.05ZM136.18,168.63c3.22.11,6.55.27,10.01.45,2.96.15,6,.31,9.07.43l-6.8,12.3c-1.29-.08-2.58-.17-3.86-.25-5.7-.38-11.14-.73-16.27-.86,2.62-4.01,5.24-8.02,7.86-12.05ZM158.02,169.6c7.2.21,14.51.14,21.44-.76-2.06,4.55-4.14,9.08-6.25,13.59-7.07.32-14.55,0-22.03-.46l6.84-12.38ZM182.37,168.42c5.07-.85,9.9-2.18,14.28-4.25,1.38-.65,2.72-1.41,4.04-2.25-1.43,5.09-2.89,10.19-4.39,15.29-2.09,1.2-4.26,2.17-6.51,2.82-4.26,1.21-8.9,1.9-13.76,2.24,2.15-4.59,4.26-9.22,6.35-13.85ZM203.88,159.69c4.58-3.46,8.87-7.78,13.06-12.01,2.78-2.81,5.51-5.56,8.29-8.07-1.08,4.62-2.14,9.24-3.2,13.85-2.54,2.44-5.01,5.05-7.46,7.63-4.82,5.09-9.74,10.28-15.11,14.07,1.5-5.16,2.97-10.33,4.41-15.48ZM252.05,129.52c8.28,1.58,14.75,6.78,21.02,13.01-.5,3.42-.99,6.84-1.49,10.26-5.9-5.43-12.41-9.94-20.53-11.38-.53-.09-1.06-.17-1.59-.23.85-3.88,1.71-7.77,2.59-11.67ZM275.24,144.74c1.1,1.14,2.2,2.3,3.31,3.47,5.46,5.75,11.04,11.62,17.7,15.62-.17,3.86-.34,7.72-.5,11.59-5.85-3.8-10.91-9.09-15.86-14.28-2.01-2.1-4.03-4.22-6.11-6.26.49-3.38.98-6.76,1.47-10.14ZM298.67,165.16c3.16,1.61,6.56,2.79,10.31,3.33,3.54.51,7.09.39,10.62-.11l.5,11.77c-3.62.68-7.23.93-10.79.47-4.08-.52-7.75-1.88-11.15-3.76.17-3.9.34-7.8.51-11.71ZM322.06,167.98c5.87-1.12,11.71-3.2,17.43-5.25.87-.31,1.75-.63,2.63-.94l1.33,10.45c-1.57.6-3.14,1.21-4.69,1.83-5.34,2.11-10.78,4.26-16.21,5.56l-.5-11.65ZM344.5,160.96c5.62-1.93,11.31-3.6,16.8-3.99.87-.06,1.72-.09,2.55-.1l2.2,10.33c-1.7,0-3.45.08-5.27.28-4.95.53-9.97,2.06-14.95,3.88l-1.33-10.39ZM366.39,156.89c8.6.3,15.4,3,21.86,6.81l3.04,10.19c-6.95-3.49-14.17-6.18-22.69-6.63l-2.21-10.38ZM391.41,165.67c2.6,1.68,5.18,3.5,7.84,5.39,4.52,3.2,9.19,6.5,14.52,9.5.96,2.17,1.94,4.33,2.93,6.48-5.82-2.36-11.12-5.31-16.27-8.2-2.04-1.14-4.06-2.27-6.09-3.35l-2.92-9.82ZM417.3,182.39c5.62,2.63,10.97,3.69,16.16,3.69,1.22,0,2.42-.06,3.62-.17,1.25,1.6,2.6,3.23,4.06,4.9-6.43.56-12.88.17-19.49-1.95-.56-.18-1.11-.38-1.66-.57-.91-1.95-1.8-3.92-2.69-5.89ZM435.97,193.49c2.4,0,4.79-.16,7.16-.42,1.09,1.24,2.15,2.5,3.16,3.78h-22.27c-.86-1.82-1.72-3.65-2.59-5.48,4.89,1.51,9.74,2.12,14.53,2.12ZM446.07,192.68c6.4-.96,12.71-2.62,18.93-4.28,1-.27,2-.53,3.01-.8.26.28.52.55.77.83,2.37,2.62,4.56,5.45,6.62,8.42h-25.99c-1.07-1.42-2.18-2.81-3.34-4.18ZM470.72,186.9c5.13-1.31,10.35-2.5,15.57-3.14.97-.12,1.95-.2,2.92-.3,1.61,2.23,3.23,4.45,4.83,6.65,1.62,2.23,3.26,4.48,4.89,6.74h-20.55c-2.37-3.51-4.89-6.86-7.66-9.95ZM496.04,188.66c-1.32-1.82-2.66-3.66-3.99-5.49,7.92-.72,16.01-.98,24.15-1l10.62,14.69h-24.84c-1.99-2.75-3.97-5.48-5.94-8.19ZM519.25,182.17c7.28.03,14.56.22,21.77.43l11.52,14.26h-22.67l-10.62-14.68ZM517.46,179.69l-8.61-11.91c6.72-.2,13.53-.08,20.3.12l9.83,12.16c-7.13-.2-14.32-.37-21.51-.37ZM507.09,165.36l-6.88-9.51c6.12-.59,12.3-.75,18.57-.75l8.31,10.28c-6.68-.18-13.38-.27-20-.01ZM498.54,153.53l-6.29-8.7c5.65-.83,11.32-1.21,17.13-1.38l7.41,9.17c-6.15.03-12.23.25-18.25.9ZM490.63,142.58l-4.76-6.59c5.14-.88,10.35-1.67,15.64-2.3l5.94,7.35c-5.68.21-11.25.65-16.81,1.54ZM484.25,133.77l-8.01-11.08c5.37-.06,10.79-.11,16.23-.16l7.2,8.9c-5.21.65-10.35,1.46-15.41,2.34ZM474.47,120.23l-5.05-6.99h15.56l5.52,6.82c-5.38.05-10.72.1-16.02.16ZM467.63,110.77l-4.34-6h14.84l4.85,6h-15.35ZM461.5,102.3l-3.88-5.37h14.17l4.34,5.37h-14.63ZM455.82,94.45l-3.47-4.8h13.55l3.88,4.8h-13.96ZM450.56,87.18l-3.11-4.3h12.97l3.47,4.3h-13.34ZM445.67,80.41l-2.78-3.84h12.44l3.11,3.84h-12.76ZM441.1,74.09l-2.48-3.43h11.93l2.77,3.43h-12.23ZM436.83,68.18l-2.21-3.06h11.46l2.47,3.06h-11.72ZM432.83,62.65l-1.97-2.72h11.02l2.2,2.72h-11.25ZM429.07,57.46l-1.75-2.41h10.61l1.95,2.41h-10.81ZM425.54,52.57l-1.54-2.13h10.21l1.72,2.13h-10.4ZM422.48,52.57h-10.52l-1.36-2.13h10.34l1.54,2.13ZM409.03,47.96l-1.2-1.88h9.97l1.36,1.88h-10.13ZM406.09,47.96h-10.24l-1.04-1.88h10.08l1.2,1.88ZM393.02,47.96h-10.37c-.29-.62-.58-1.26-.87-1.88h10.19l1.04,1.88ZM381.07,50.44c.33.71.65,1.41.98,2.13h-10.79c-.27-.71-.54-1.42-.81-2.13h10.62ZM368.62,52.57h-.2c-3.41,0-6.94.14-10.57.34l-.65-2.19c3.27-.17,6.45-.29,9.52-.29h1.1c.27.71.54,1.42.81,2.13ZM355.3,53.06c-1.99.12-4,.25-6.06.39-1.59.11-3.19.21-4.79.31l-.47-2.21c1.42-.09,2.84-.18,4.25-.27,2.18-.14,4.31-.28,6.42-.4l.65,2.19ZM341.96,53.91c-3.7.22-7.41.39-11.06.45l-.28-2.23c3.6-.06,7.23-.22,10.87-.44l.47,2.22ZM314.71,53.54c-1.8-.25-3.57-.56-5.29-.95-1.96-.45-3.88-1.14-5.77-2.02.03-.62.05-1.24.08-1.86,1.68.72,3.39,1.3,5.14,1.69,1.87.42,3.78.74,5.74.99l.09,2.14ZM301.24,49.32c-3.77-2.12-7.41-4.94-10.96-8.07.06-.41.12-.83.18-1.24,3.49,2.98,7.09,5.62,10.86,7.57-.03.58-.05,1.16-.08,1.74ZM288.07,39.25c-2.29-2.11-4.54-4.31-6.78-6.49-1.46-1.42-2.92-2.85-4.39-4.26.1-.37.2-.75.3-1.12.79.78,1.58,1.56,2.37,2.35,2.85,2.82,5.72,5.67,8.67,8.33-.06.4-.11.8-.17,1.19ZM274.85,26.57c-3.75-3.48-7.58-6.72-11.59-9.26.2-.54.42-1.08.62-1.62,3.81,2.69,7.54,6.07,11.28,9.7-.11.39-.21.79-.32,1.18ZM261.11,16.03c-3.72-2.08-7.58-3.51-11.67-3.92.31-.75.61-1.51.92-2.26,3.97.52,7.74,2.13,11.41,4.44-.22.58-.45,1.16-.67,1.74ZM246.82,11.98c-1.31,0-2.65.12-4.01.36-2.01.35-3.92.97-5.77,1.79.25-.7.5-1.41.75-2.11,2.31-1.13,4.72-1.93,7.28-2.23.91-.11,1.81-.14,2.7-.13-.32.77-.63,1.55-.95,2.32ZM219.85,27.88c-.68.71-1.36,1.43-2.03,2.14-2.76,2.92-5.42,5.73-8.1,8.11.35-.8.7-1.61,1.04-2.42,3.19-2.53,6.28-5.72,9.54-9.09-.15.42-.3.83-.46,1.25ZM205.55,41.44c-3.07,2.12-5.81,3.83-8.43,5.23.41-.77.84-1.53,1.25-2.31,2.62-1.5,5.34-3.35,8.37-5.59-.39.89-.79,1.77-1.19,2.66ZM193.3,48.53c-3.37,1.46-6.66,2.43-10.3,3.04.56-.72,1.11-1.44,1.67-2.16,3.57-.64,6.7-1.61,9.79-3.03-.39.72-.77,1.44-1.16,2.15ZM191.44,51.95c-.64,1.16-1.32,2.31-1.97,3.46-3.44,1-6.95,1.52-10.81,1.78.73-.93,1.44-1.87,2.17-2.81,3.84-.46,7.24-1.23,10.62-2.44ZM187.77,58.39c-.66,1.15-1.31,2.31-1.99,3.46-3.75.72-7.57.97-11.56,1.02.81-1.03,1.62-2.06,2.43-3.1,3.96-.18,7.59-.57,11.12-1.38ZM184.13,64.62c-.67,1.14-1.35,2.27-2.04,3.41-4.06.49-8.2.6-12.35.56.85-1.08,1.69-2.16,2.53-3.24,4.04,0,7.97-.15,11.85-.73ZM180.51,70.69c-.82,1.34-1.66,2.66-2.49,4-4.26.21-8.69.16-13.07.02.96-1.22,1.91-2.45,2.87-3.67,4.24.08,8.48.04,12.68-.34ZM176.44,77.23c-.95,1.52-1.9,3.03-2.86,4.54-4.51.05-9.19-.18-13.85-.47,1.11-1.4,2.22-2.79,3.33-4.19,4.44.17,8.98.26,13.39.12ZM146.77,97.59c5.33.27,10.71.54,16.03.57-1.18,1.75-2.39,3.49-3.59,5.24-5.56-.01-11.17-.23-16.72-.46,1.43-1.78,2.86-3.56,4.28-5.34ZM140.56,105.32c5.61.24,11.3.47,16.95.53-1.21,1.75-2.43,3.49-3.65,5.23-5.98-.01-11.94-.07-17.82-.14,1.51-1.87,3.01-3.74,4.51-5.62ZM134.99,113.4c5.65.06,11.39.12,17.14.14-1.89,2.67-3.78,5.32-5.7,7.98-5.88-.15-11.79-.45-17.67-.75-.21-.01-.42-.02-.63-.03,1.98-2.44,3.96-4.89,5.93-7.34.3,0,.61,0,.92.01ZM128.64,123.24c5.33.28,10.7.55,16.05.71-1.46,2.01-2.92,4.02-4.39,6.02h-19.64c1.85-2.28,3.7-4.57,5.56-6.85.81.04,1.61.08,2.43.12ZM138.47,132.44c-2.6,3.53-5.22,7.05-7.85,10.56-5.36-.26-10.69-.59-15.91-.92-1.25-.08-2.5-.16-3.73-.23,2.55-3.13,5.1-6.27,7.65-9.41h19.83ZM114.57,144.55c4.69.29,9.46.59,14.27.84-1.88,2.5-3.76,4.99-5.65,7.47h-21.19c2.35-2.88,4.7-5.75,7.06-8.65,1.81.11,3.64.22,5.5.34ZM121.31,155.33c-2.72,3.58-5.45,7.15-8.18,10.71h-21.9c2.91-3.56,5.83-7.13,8.76-10.71h21.33ZM111.23,168.51c-3.05,3.97-6.1,7.93-9.13,11.87-.06.08-.12.16-.18.24h-22.63c.89-1.09,1.79-2.19,2.68-3.27,2.4-2.94,4.82-5.89,7.24-8.84h22.03ZM100.01,183.1c-3.51,4.56-7.04,9.15-10.57,13.76h-23.44c3.77-4.61,7.52-9.2,11.26-13.76h22.75ZM103.13,183.1h20.65c-2.33,3.55-4.65,7.09-6.97,10.63-.68,1.04-1.37,2.09-2.06,3.13h-22.2c3.54-4.61,7.07-9.2,10.58-13.76ZM149.86,184.37c7.49.47,15,.83,22.17.59-2.1,4.45-4.2,8.88-6.32,13.28-7.6.21-15.46-.1-23.25-.48l7.4-13.39ZM174.82,184.83c5.52-.32,10.8-1.05,15.64-2.42,1.67-.48,3.29-1.12,4.86-1.88-1.31,4.44-2.66,8.87-4.03,13.29-2.57,1.22-5.26,2.16-8.13,2.71-4.67.9-9.6,1.39-14.66,1.62,2.11-4.41,4.23-8.85,6.32-13.31ZM198.4,178.84c6.57-4,12.34-10.09,17.97-16.04,1.55-1.64,3.09-3.27,4.64-4.84-1.04,4.59-2.08,9.17-3.11,13.74-1.64,1.57-3.26,3.17-4.86,4.77-5.82,5.79-11.79,11.7-18.65,15.7,1.37-4.44,2.7-8.88,4.01-13.33ZM224.28,154.73c6.71-6.37,13.68-11.2,22.14-11.23-.94,4.32-1.87,8.63-2.78,12.93-8.73,1.38-15.91,6.36-22.53,12.29,1.05-4.66,2.11-9.32,3.17-13.99ZM248.92,143.62c.56.06,1.12.13,1.69.23,8.13,1.44,14.49,6.14,20.53,11.92-.5,3.42-.99,6.84-1.49,10.27-7.22-5.97-14.87-10.32-23.43-9.89.88-4.16,1.79-8.34,2.7-12.52ZM273.33,157.92c1.59,1.6,3.17,3.25,4.76,4.93,5.41,5.68,10.94,11.47,17.53,15.45-.16,3.73-.32,7.46-.49,11.18-4.72-3.64-9.28-8.12-13.76-12.53-3.12-3.07-6.27-6.17-9.5-9,.48-3.34.97-6.68,1.45-10.02ZM298.04,179.63c3.34,1.71,6.95,2.94,10.96,3.46,3.74.48,7.48.24,11.21-.44l.67,15.78c-3.98-.24-7.82-.72-11.45-1.54-4.11-.93-8.06-2.98-11.89-5.66.17-3.87.34-7.73.51-11.6ZM322.66,182.15c5.73-1.32,11.42-3.57,17.01-5.77,1.38-.55,2.74-1.08,4.1-1.6l2.94,23.07c-7.85.52-15.81.99-23.36.71l-.7-16.4ZM346.15,173.87c5.07-1.88,9.99-3.41,14.89-3.93,1.91-.2,3.75-.29,5.53-.27l5.78,27.18h-4.88c-5.77,0-11.86.4-18.29.82l-3.04-23.81ZM369.13,169.78c8.65.6,15.96,3.65,23.13,7.41l5.86,19.67h-23.23l-5.76-27.08ZM395.34,178.84c1.29.71,2.58,1.43,3.88,2.16,5.93,3.32,12.04,6.74,18.98,9.28,1.03,2.2,2.06,4.4,3.09,6.58h-20.59l-5.36-18.02ZM422.46,199.33c.28.58.55,1.17.83,1.75,2.18,4.59,4.39,9.24,6.56,13.95h-23.74l-4.67-15.7h21.03ZM425.53,200.01c-.11-.23-.22-.46-.32-.68h22.97c3.64,4.96,6.76,10.22,9.65,15.7h-25.25c-2.32-5.07-4.7-10.08-7.04-15.01ZM451.21,199.33h25.84c3.29,4.99,6.27,10.3,9.1,15.7h-25.54c-2.83-5.45-5.88-10.71-9.41-15.7ZM480.04,199.33h20.68c3.74,5.18,7.49,10.41,11.19,15.7h-22.96c-2.79-5.35-5.69-10.67-8.91-15.7ZM503.77,199.33h24.84l11.35,15.7h-25.03c-3.69-5.29-7.42-10.52-11.16-15.7ZM531.66,199.33h22.88l12.69,15.7h-24.22l-11.35-15.7ZM557.72,199.33h22.75l14.02,15.7h-24.08l-12.69-15.7ZM555.72,196.86l-11.45-14.17c7.2.2,14.56.4,21.69.4l12.29,13.76h-22.54ZM542.23,180.16l-9.82-12.15c.95.03,1.89.06,2.83.09,6.14.2,11.95.39,17.69.41l10.81,12.1c-7.11-.05-14.42-.24-21.52-.45ZM535.32,165.63c-1.65-.05-3.31-.11-4.97-.16l-8.37-10.36c2.62.02,5.26.06,7.91.1,3.67.06,7.46.11,11.27.12l9.55,10.69c-4.99-.05-10.06-.21-15.39-.39ZM529.93,152.73c-3.35-.05-6.66-.1-9.96-.11l-7.47-9.24c4.15-.07,8.37-.06,12.72-.04,1.72,0,3.47.01,5.24.01l8.47,9.48c-3.04-.02-6.06-.06-9.01-.1ZM525.24,140.87c-5.04-.02-9.92-.03-14.7.08l-6.12-7.57c5.35-.56,10.78-.9,16.31-.93l7.53,8.43c-1.01,0-2.02,0-3.01,0ZM502.56,131.08l-6.93-8.57c5.39-.04,10.79-.07,16.15-.07l6.77,7.58c-5.42.1-10.75.47-16,1.06ZM493.65,120.05l-5.5-6.8h15.42l6.01,6.72c-5.3,0-10.62.03-15.94.08ZM486.15,110.77l-4.85-6h14.7l5.36,6h-15.21ZM479.3,102.3l-4.34-5.37h14.04l4.8,5.37h-14.49ZM472.96,94.45l-3.88-4.8h13.42l4.29,4.8h-13.83ZM467.08,87.18l-3.47-4.3h12.84l3.84,4.3h-13.21ZM461.61,80.41l-3.11-3.84h12.3l3.43,3.84h-12.63ZM456.51,74.09l-2.77-3.43h11.8l3.07,3.43h-12.09ZM451.73,68.18l-2.47-3.06h11.33l2.73,3.06h-11.59ZM447.26,62.65l-2.2-2.72h10.89l2.43,2.72h-11.12ZM443.06,57.46l-1.95-2.41h10.47l2.16,2.41h-10.68ZM439.11,52.57l-1.72-2.13h10.08l1.9,2.13h-10.26ZM432.21,47.96h-10l-1.36-1.88h9.84l1.52,1.88ZM419.06,43.61l-1.18-1.64h9.49l1.32,1.64h-9.63ZM416.01,43.61h-9.76l-1.05-1.64h9.62l1.18,1.64ZM403.32,43.61h-9.87l-.91-1.64h9.73l1.05,1.64ZM390.62,43.61h-9.98c-.25-.55-.51-1.1-.76-1.64h9.84l.91,1.64ZM377.91,43.61h-9.78c-.09,0-.19,0-.28,0-.21-.55-.42-1.09-.63-1.64h9.92c.25.54.51,1.09.76,1.64ZM365.22,43.65c-3.26.05-6.59.18-10.03.35l-.5-1.68c3.4-.16,6.69-.28,9.9-.32.21.55.42,1.1.63,1.65ZM366.16,46.11c.24.62.47,1.23.71,1.85h-.15c-3.31,0-6.73.14-10.25.33l-.55-1.84c3.52-.17,6.93-.29,10.24-.33ZM353.93,48.43c-1.92.12-3.87.24-5.86.37-1.53.1-3.07.2-4.61.3l-.43-2.01c2.43-.11,4.86-.23,7.27-.36,1.04-.06,2.05-.11,3.07-.16l.55,1.86ZM340.97,49.25c-3.57.21-7.14.37-10.66.43l-.29-2.26c.23,0,.45,0,.68,0,3.26,0,6.55-.09,9.84-.22l.44,2.05ZM314.52,48.89c-1.73-.24-3.44-.53-5.09-.9-1.89-.42-3.75-1.08-5.57-1.92.03-.73.06-1.46.1-2.19,1.62.66,3.26,1.2,4.94,1.57,1.81.4,3.65.71,5.52.98l.1,2.47ZM288.67,35.09c-2.48-2.3-4.93-4.72-7.35-7.12-1.12-1.11-2.25-2.23-3.38-3.34.03-.13.07-.26.1-.38.58.54,1.17,1.09,1.75,1.64,2.97,2.77,5.96,5.57,9.03,8.17-.05.34-.1.69-.15,1.04ZM275.89,22.66c-3.6-3.44-7.28-6.69-11.11-9.32.03-.07.06-.15.08-.22,3.73,2.61,7.4,5.82,11.11,9.23-.03.11-.06.21-.08.32ZM265.77,10.77c.14-.35.27-.71.41-1.06,3.99,2.96,7.91,6.56,11.89,10.32l-1.37-.37c-3.56-3.24-7.19-6.34-10.94-8.89ZM263.65,9.39c-3.57-2.2-7.25-3.85-11.11-4.64.23-.54.46-1.08.69-1.61,3.75.9,7.34,2.71,10.86,5.09-.15.39-.3.78-.45,1.16ZM262.76,11.71c-.03.08-.06.16-.09.25-3.61-2.21-7.35-3.82-11.3-4.47.06-.14.12-.29.18-.43,3.87.69,7.58,2.35,11.21,4.65ZM248.79,7.21c-1.31-.07-2.65-.03-4.01.13-2.02.24-3.97.76-5.84,1.49.08-.21.15-.42.23-.63,1.37-.43,2.78-.79,4.25-1.08,1.9-.37,3.75-.48,5.56-.36-.06.15-.13.3-.2.45ZM235.79,10.29c-3.34,1.79-6.45,4.2-9.38,6.84.4-1.1.8-2.19,1.2-3.29,2.67-1.78,5.49-3.33,8.54-4.55-.12.33-.24.67-.36,1ZM170.84,50.43c3.9-.02,7.28-.18,10.32-.52-.55.7-1.09,1.41-1.63,2.11-3.14.33-6.59.48-10.58.52l1.89-2.12ZM177.46,54.71c-.69.88-1.37,1.77-2.06,2.65-3.22.11-6.69.11-10.57.1h-.26l2.16-2.42c4.03,0,7.54-.1,10.73-.33ZM164.83,59.93c3.08,0,5.92,0,8.6-.05-.78,1-1.57,2-2.35,3-1.83-.02-3.69-.06-5.62-.1-1.8-.04-3.66-.07-5.56-.1l2.45-2.75h2.47ZM165.41,65.25c1.27.03,2.52.05,3.76.08-.84,1.07-1.68,2.14-2.52,3.21-1.63-.04-3.27-.09-4.89-.14-2.24-.07-4.53-.13-6.8-.17l2.76-3.09c2.65,0,5.22.06,7.69.12ZM161.67,70.87c1.02.03,2.05.07,3.07.1-.95,1.21-1.9,2.42-2.85,3.63-1.32-.05-2.64-.11-3.93-.17-2.91-.13-5.7-.25-8.28-.3l3.09-3.46c2.94.01,5.97.1,8.91.2ZM157.86,76.9c.71.03,1.42.06,2.13.09-1.09,1.38-2.18,2.75-3.27,4.13-.29-.02-.59-.04-.88-.06-4.14-.27-8.08-.52-11.8-.61l3.47-3.88c3.12.02,6.64.16,10.36.33ZM154.85,83.47c-1.1,1.39-2.2,2.78-3.3,4.16-.24,0-.48-.02-.72-.03-4.24-.17-8.59-.35-12.82-.4l3.85-4.32c4.02.02,8.39.29,13,.59ZM149.64,90.04c-1.33,1.67-2.67,3.34-4.01,5.01-4.92-.25-9.6-.49-14.14-.56l4.32-4.83c4.51.01,9.22.19,13.83.38ZM143.72,97.43c-1.43,1.79-2.87,3.58-4.3,5.37-4.96-.21-10.02-.41-14.93-.47l4.82-5.39c4.61.02,9.4.24,14.42.49ZM137.5,105.19c-1.53,1.91-3.06,3.81-4.6,5.71-5.26-.06-10.63-.11-15.96-.12l5.36-6c4.95.01,9.97.2,15.2.42ZM130.91,113.36c-1.95,2.41-3.89,4.82-5.84,7.22-5.63-.28-11.06-.51-16.38-.58l6.03-6.75c5.38,0,10.82.05,16.18.11ZM123.15,122.96c-1.9,2.34-3.79,4.67-5.69,7.01h-17.67l6.72-7.52c5.4.01,10.92.23,16.64.51ZM115.45,132.44c-2.5,3.08-5,6.16-7.5,9.22-6.28-.38-12.29-.68-17.92-.76l7.56-8.47h17.86ZM106.02,144.03c-2.41,2.95-4.81,5.89-7.21,8.83h-19.45l8.48-9.49c5.67.02,11.77.29,18.19.67ZM96.79,155.33c-2.93,3.58-5.84,7.15-8.76,10.71h-20.45l9.57-10.71h19.64ZM86,168.51c-1.98,2.42-3.98,4.86-5.95,7.27-1.31,1.6-2.64,3.23-3.96,4.84h-21.54l10.82-12.11h20.63ZM74.06,183.1c-3.74,4.56-7.49,9.15-11.26,13.76h-22.76l12.29-13.76h21.72ZM60.78,199.33c-4.29,5.25-8.58,10.5-12.87,15.78-8.03-.04-16.09-.07-24.1-.08l14.02-15.7h22.94ZM63.98,199.33h23.57c-4.06,5.3-8.1,10.63-12.11,15.95-.92,0-1.85-.01-2.77-.02-7.11-.05-14.33-.1-21.57-.14,4.3-5.28,8.6-10.54,12.89-15.79ZM116.09,199.33h1.9c6.48,0,13.23.34,20.38.7l-8.55,15.45c-8.12.01-16.22,0-24.29-.03,3.53-5.42,7.06-10.79,10.56-16.12ZM162.78,210.02c1.5-3.1,3-6.22,4.5-9.35,5.63-.21,11.12-.72,16.34-1.72,2.34-.45,4.56-1.13,6.69-1.99-1.78,5.64-3.61,11.26-5.51,16.85-2.76.72-5.71,1.15-8.91,1.22-5.2.11-10.41.19-15.63.25.85-1.76,1.69-3.52,2.53-5.25ZM217.7,183.92c.82-3.64,1.63-7.3,2.46-10.95,6.98-6.64,14.09-12.24,22.94-13.93-1.16,5.5-2.3,10.98-3.41,16.45-9.59,2.65-16.84,8.86-23.56,15.48.53-2.35,1.06-4.71,1.58-7.04ZM245.7,158.65c8.53-.71,16.1,3.84,23.54,10.25-.65,4.49-1.3,8.99-1.95,13.48-7.27-5.54-14.98-9.16-23.6-7.79-.46.07-.9.17-1.35.26,1.1-5.39,2.22-10.79,3.36-16.21ZM271.45,170.86c2.72,2.47,5.44,5.14,8.19,7.85,4.97,4.89,10.03,9.86,15.36,13.76-.21,4.85-.42,9.7-.63,14.55-4.43-3.52-8.73-7.72-12.96-11.86-3.89-3.81-7.82-7.66-11.88-11,.64-4.43,1.28-8.87,1.92-13.3ZM297.41,194.14c3.67,2.41,7.47,4.25,11.47,5.16,3.85.87,7.91,1.37,12.1,1.61l.67,15.83c-4.25-.28-8.36-.8-12.23-1.69-4.38-1-8.58-3.26-12.66-6.21.21-4.9.43-9.8.64-14.7ZM323.46,201.03c1.52.05,3.06.08,4.61.08,6.23,0,12.63-.39,18.95-.81l2.04,15.97c-8.42.54-16.9.97-24.93.61l-.67-15.85ZM349.5,200.14c6.33-.42,12.34-.81,17.98-.81h5.4l3.34,15.7h-1.8c-6.58,0-13.6.47-21.03.96-.62.04-1.24.08-1.86.12l-2.04-15.97ZM375.41,199.33h23.44l4.67,15.7h-24.78l-3.34-15.7ZM404.27,217.5l5.36,18h-26.52l-3.83-18h24.99ZM406.85,217.5h24.13c2.69,5.92,5.29,11.93,7.67,18h-26.44l-5.36-18ZM433.7,217.5h25.41c2.52,4.93,4.89,10.03,7.3,15.22.43.92.86,1.85,1.29,2.78h-26.4c-2.35-6.09-4.93-12.09-7.61-18ZM468.65,231.68c-2.24-4.83-4.45-9.57-6.77-14.18h25.56c1.08,2.1,2.16,4.2,3.22,6.29,1.98,3.89,4.01,7.89,6.08,11.71h-26.31c-.6-1.28-1.19-2.56-1.78-3.82ZM492.87,222.67c-.87-1.72-1.75-3.45-2.64-5.17h23.4c4.13,5.94,8.18,11.94,12.09,18h-26.17c-2.26-4.13-4.42-8.36-6.69-12.83ZM516.65,217.5h25.09l13.02,18h-26.09c-3.88-6.07-7.92-12.07-12.02-18ZM544.8,217.5h24.43l14.55,18h-25.96l-13.02-18ZM572.41,217.5h24.29l16.08,18h-25.83l-14.55-18ZM441.37,43.61h-9.5l-1.32-1.64h9.36l1.46,1.64ZM349.15,42.59c1.01-.05,2-.1,2.99-.15l.5,1.69c-.82.04-1.64.08-2.47.13-2.54.13-5.1.27-7.66.38l-.36-1.7c2.34-.11,4.68-.23,7-.35ZM339.65,43.05l.36,1.7c-3.46.13-6.9.21-10.31.2l-.22-1.69c3.36.01,6.76-.07,10.16-.21ZM314.24,42.3l.07,1.62c-1.66-.24-3.29-.53-4.89-.88-1.81-.4-3.6-1.01-5.35-1.78.02-.46.04-.91.06-1.37,1.56.62,3.15,1.13,4.77,1.48,1.75.38,3.53.68,5.34.93ZM291.12,31.85l-1.3-.19c-2.82-2.42-5.6-5.02-8.35-7.59-.9-.84-1.81-1.69-2.72-2.53.06-.23.12-.46.19-.69.28.27.57.54.85.81,3.7,3.51,7.45,7.06,11.33,10.19ZM245.15,2.66c1.91-.25,3.77-.21,5.6.02-.24.56-.49,1.13-.73,1.69-2.29-.23-4.64-.15-7.06.32-.93.18-1.83.4-2.72.63.22-.61.45-1.22.67-1.83,1.37-.36,2.78-.65,4.24-.84ZM237.26,6.24c-2.95,1.02-5.7,2.33-8.28,3.85.02-.05.04-.1.05-.15l-1.03-.38c3.13-2.11,6.4-3.88,9.93-5.15-.22.61-.45,1.21-.67,1.82ZM178.46,41.9c14.95-2.1,25.3-11.49,35.31-20.58,4.08-3.7,8.06-7.31,12.25-10.37-.16.44-.32.87-.48,1.31-3.88,2.66-7.45,5.72-10.9,8.84l-.43-.17c-.12.3-.24.59-.36.89-.72.65-1.44,1.31-2.15,1.96-3.2,2.93-6.44,5.89-9.9,8.61l-.06-.03s-.04.08-.06.12c-3.59,2.81-7.43,5.33-11.7,7.27l-.62-.47c-.29.38-.58.75-.87,1.13-3.45,1.42-7.19,2.46-11.33,2.95l1.3-1.45ZM21.61,217.5c8.07,0,16.19.03,24.3.07-4.9,6.03-9.8,12.05-14.65,18.06-8.58-.07-17.18-.11-25.73-.12l16.08-18ZM34.42,235.65c4.86-6.01,9.76-12.04,14.67-18.07,7.92.04,15.8.1,23.56.15.32,0,.63,0,.95,0-4.55,6.07-9.03,12.13-13.39,18.15-.47,0-.95,0-1.43-.01-8.03-.08-16.18-.16-24.36-.23ZM92.14,236.17c3.88-6.08,7.83-12.17,11.79-18.25,8.15.04,16.33.05,24.53.04l-10.05,18.18.19.11c-8.84.01-17.66-.02-26.45-.07ZM170.88,235.5c-6.8.21-13.64.35-20.48.46,2.84-6.06,5.76-12.17,8.66-18.2,5.64-.07,11.27-.15,16.88-.27,2.82-.06,5.44-.4,7.93-.93-2.16,6.26-4.4,12.47-6.75,18.62-1.96.15-4.02.25-6.23.32ZM204.26,225.62c-8.97,6.03-15.76,8.36-24.42,9.32,2.39-6.31,4.68-12.68,6.87-19.1,10.37-3.06,17.96-9.94,25.11-17.08-1.92,8.54-3.87,17.13-5.85,25.62-.57.43-1.14.85-1.72,1.24ZM216.98,213.65c-2.65,2.88-5.21,5.66-7.85,8.08,2.02-8.73,4.02-17.54,5.97-26.26,7.29-7.35,14.37-14.22,24.02-17.25-1.35,6.7-2.67,13.37-3.95,20.03-6.98,3.24-12.67,9.41-18.19,15.4ZM246.65,195.67c-2.8,0-5.71.47-8.74,1.48,1.26-6.54,2.56-13.1,3.89-19.68.74-.17,1.5-.32,2.28-.44,8.25-1.32,15.62,2.39,22.81,8.13-.8,5.54-1.59,11.07-2.38,16.58-5.54-3.64-11.41-6.08-17.86-6.08ZM281.11,215.73c-4.66-4.39-9.37-8.83-14.33-12.41.78-5.42,1.56-10.86,2.34-16.3,3.52,3.01,7.01,6.43,10.56,9.91,4.72,4.63,9.53,9.32,14.56,13.12-.24,5.55-.48,11.1-.72,16.64-4.26-3.29-8.36-7.16-12.41-10.97ZM295.91,228.47c.24-5.57.48-11.13.73-16.7,3.91,2.67,7.97,4.73,12.24,5.7,4.09.93,8.42,1.48,12.88,1.76l.74,17.45c-4.51-.3-8.9-.85-13.09-1.77-4.73-1.03-9.2-3.4-13.51-6.45ZM323.57,236.75l1.41-.06-.74-17.33c2,.08,4.01.13,6.05.13,6.26,0,12.69-.35,19.08-.76l2.25,17.62c-9.42.5-18.97.93-28.05.4ZM354.11,236.21l-2.25-17.65c.57-.04,1.14-.07,1.71-.11,7.39-.49,14.36-.95,20.86-.95h2.32l3.83,18h-6.9c-6.23,0-12.72.34-19.57.71Z"/>
  </g>
</svg>